<svg width="32" height="48" viewBox="0 0 32 48" fill="none" xmlns="http://www.w3.org/2000/svg">
<path d="M7.07533 22.7865C7.07533 12.3759 20.9188 14.0112 24.4294 15.5888C20.729 11.0251 17.9233 8.25354 13.5112 8C-4.74146 8 0.523224 29.0485 1.41365 30.9872C9.48559 48.5618 26.8186 47.8895 28.5977 47.5515C5.53496 35.9973 7.07533 27.1093 7.07533 22.7865Z" fill="#42AF1D"/>
<rect x="12.4453" y="25.9673" width="18.963" height="3.16049" rx="1.58025" fill="#42AF1D"/>
<rect x="23.5059" y="18.3503" width="18.963" height="3.16049" rx="1.58025" transform="rotate(90 23.5059 18.3503)" fill="#42AF1D"/>
<ellipse rx="1.09722" ry="1.38766" transform="matrix(-0.866025 0.5 0.5 0.866025 2.66744 9.24156)" fill="#42AF1D"/>
<ellipse rx="1.27265" ry="1.60953" transform="matrix(-0.965926 0.258819 0.258819 0.965926 5.45878 7.42216)" fill="#42AF1D"/>
<ellipse rx="1.60748" ry="2.03738" transform="matrix(-0.965926 0.258819 0.258819 0.965926 8.71094 5.78122)" fill="#42AF1D"/>
<ellipse rx="2.00341" ry="2.53372" transform="matrix(-1 -8.74228e-08 -8.74228e-08 1 12.7329 4.6326)" fill="#42AF1D"/>
<ellipse rx="2.75656" ry="3.62706" transform="matrix(-0.965926 -0.258819 -0.258819 0.965926 18.3303 4.4094)" fill="#42AF1D"/>
</svg>
