<svg width="20" height="20" viewBox="0 0 20 20" fill="none" xmlns="http://www.w3.org/2000/svg">
<path d="M10.4668 18.75C10.3983 18.7494 10.3317 18.7275 10.2762 18.6875C10.0043 18.4781 3.5918 13.5312 3.5918 8.125C3.5918 6.30164 4.31613 4.55295 5.60544 3.26364C6.89475 1.97433 8.64343 1.25 10.4668 1.25C12.2902 1.25 14.0388 1.97433 15.3282 3.26364C16.6175 4.55295 17.3418 6.30164 17.3418 8.125C17.3418 13.5312 10.9293 18.4781 10.6574 18.6875C10.6019 18.7275 10.5353 18.7494 10.4668 18.75ZM10.4668 1.875C8.80919 1.875 7.21948 2.53348 6.04738 3.70558C4.87528 4.87769 4.2168 6.4674 4.2168 8.125C4.2168 12.7219 9.40117 17.1875 10.4668 18.0375C11.5324 17.1875 16.7168 12.7188 16.7168 8.125C16.7168 6.4674 16.0583 4.87769 14.8862 3.70558C13.7141 2.53348 12.1244 1.875 10.4668 1.875Z" fill="#1E3301"/>
<path d="M10.4668 11.5625C9.78692 11.5625 9.12232 11.3609 8.55703 10.9832C7.99173 10.6055 7.55114 10.0686 7.29096 9.44048C7.03079 8.81236 6.96271 8.12119 7.09535 7.45438C7.22799 6.78757 7.55538 6.17506 8.03612 5.69432C8.51686 5.21358 9.12937 4.88619 9.79618 4.75355C10.463 4.62092 11.1542 4.68899 11.7823 4.94917C12.4104 5.20934 12.9473 5.64993 13.325 6.21523C13.7027 6.78052 13.9043 7.44513 13.9043 8.125C13.9043 9.03668 13.5421 9.91103 12.8975 10.5557C12.2528 11.2003 11.3785 11.5625 10.4668 11.5625ZM10.4668 5.3125C9.91054 5.3125 9.36677 5.47745 8.90426 5.78649C8.44174 6.09553 8.08126 6.53479 7.86839 7.0487C7.65552 7.56262 7.59982 8.12812 7.70834 8.67369C7.81686 9.21926 8.08473 9.7204 8.47806 10.1137C8.8714 10.5071 9.37253 10.7749 9.91811 10.8835C10.4637 10.992 11.0292 10.9363 11.5431 10.7234C12.057 10.5105 12.4963 10.1501 12.8053 9.68754C13.1143 9.22503 13.2793 8.68126 13.2793 8.125C13.2793 7.37908 12.983 6.66371 12.4555 6.13626C11.9281 5.60882 11.2127 5.3125 10.4668 5.3125Z" fill="#1E3301"/>
</svg>
