<svg width="311" height="56" viewBox="0 0 311 56" fill="none" xmlns="http://www.w3.org/2000/svg">
<path d="M38.8564 17.1426V10.857C38.8564 4.86085 33.9956 3.8147e-05 27.9995 3.8147e-05C22.0034 3.8147e-05 17.1426 4.86085 17.1426 10.857V17.1426L38.8564 17.1426Z" fill="#C6FEB3"/>
<path d="M38.8564 38.8564V45.142C38.8564 51.1382 33.9956 55.999 27.9995 55.999C22.0034 55.999 17.1426 51.1382 17.1426 45.142V38.8564H38.8564Z" fill="#42AF1D"/>
<path d="M17.1426 38.8564H10.857C4.86085 38.8564 3.8147e-05 33.9956 3.8147e-05 27.9995C3.8147e-05 22.0034 4.86085 17.1426 10.857 17.1426L17.1426 17.1426L17.1426 38.8564Z" fill="#42AF1D"/>
<path d="M38.8564 38.8564H45.142C51.1382 38.8564 55.999 33.9956 55.999 27.9995V27.328C55.999 21.7027 51.4388 17.1426 45.8136 17.1426L44.1911 17.1426C42.114 17.1426 40.1503 16.196 38.8564 14.5712L38.8564 38.8564Z" fill="#EDF9EA"/>
<path d="M17.1426 3.20904V17.1539C19.0949 30.4756 23.4282 37.9041 38.7916 38.8564H48.9515C40.666 33.666 39.029 27.3328 39.029 15.964V3.20904C39.029 1.68605 37.9371 -0.217682 34.8986 0.020286H20.9881C18.9467 0.0202864 17.1426 1.21012 17.1426 3.20904Z" fill="#EDF9EA"/>
<path d="M48.9515 38.8565C39.885 32.7614 39.0469 24.6663 39.0469 14.7617C40.1897 17.276 43.7452 17.3966 45.3801 17.1426H51.5228C52.9673 17.2379 55.8847 18.2664 55.9989 21.6187V34.4756C56.0307 35.4756 55.3418 37.7518 52.3323 38.8565H48.9515Z" fill="url(#paint0_linear_175_3127)"/>
<path d="M81.44 11.7995H83.52V22.9995H81.44V11.7995ZM75.648 22.9995H73.568V11.7995H75.648V22.9995ZM81.6 18.1995H75.472V16.4235H81.6V18.1995ZM91.6218 22.9995V21.2715L91.5098 20.9035V17.8795C91.5098 17.2928 91.3338 16.8395 90.9818 16.5195C90.6298 16.1888 90.0964 16.0235 89.3818 16.0235C88.9018 16.0235 88.4271 16.0982 87.9578 16.2475C87.4991 16.3968 87.1098 16.6048 86.7898 16.8715L86.0058 15.4155C86.4644 15.0635 87.0084 14.8022 87.6378 14.6315C88.2778 14.4502 88.9391 14.3595 89.6218 14.3595C90.8591 14.3595 91.8138 14.6582 92.4858 15.2555C93.1684 15.8422 93.5098 16.7542 93.5098 17.9915V22.9995H91.6218ZM88.9338 23.1115C88.2938 23.1115 87.7338 23.0048 87.2538 22.7915C86.7738 22.5675 86.4004 22.2635 86.1338 21.8795C85.8778 21.4848 85.7498 21.0422 85.7498 20.5515C85.7498 20.0715 85.8618 19.6395 86.0858 19.2555C86.3204 18.8715 86.6991 18.5675 87.2218 18.3435C87.7444 18.1195 88.4378 18.0075 89.3018 18.0075H91.7818V19.3355H89.4458C88.7631 19.3355 88.3044 19.4475 88.0698 19.6715C87.8351 19.8848 87.7178 20.1515 87.7178 20.4715C87.7178 20.8342 87.8618 21.1222 88.1498 21.3355C88.4378 21.5488 88.8378 21.6555 89.3498 21.6555C89.8404 21.6555 90.2778 21.5435 90.6618 21.3195C91.0564 21.0955 91.3391 20.7648 91.5098 20.3275L91.8458 21.5275C91.6538 22.0288 91.3071 22.4182 90.8058 22.6955C90.3151 22.9728 89.6911 23.1115 88.9338 23.1115ZM100.721 23.1115C100.027 23.1115 99.3926 22.9515 98.8166 22.6315C98.2513 22.3115 97.798 21.8315 97.4566 21.1915C97.126 20.5408 96.9606 19.7195 96.9606 18.7275C96.9606 17.7248 97.1206 16.9035 97.4406 16.2635C97.7713 15.6235 98.2193 15.1488 98.7846 14.8395C99.35 14.5195 99.9953 14.3595 100.721 14.3595C101.563 14.3595 102.305 14.5408 102.945 14.9035C103.595 15.2662 104.107 15.7728 104.481 16.4235C104.865 17.0742 105.057 17.8422 105.057 18.7275C105.057 19.6128 104.865 20.3862 104.481 21.0475C104.107 21.6982 103.595 22.2048 102.945 22.5675C102.305 22.9302 101.563 23.1115 100.721 23.1115ZM95.9846 26.1035V14.4555H97.8886V16.4715L97.8246 18.7435L97.9846 21.0155V26.1035H95.9846ZM100.497 21.3995C100.977 21.3995 101.403 21.2928 101.777 21.0795C102.161 20.8662 102.465 20.5568 102.689 20.1515C102.913 19.7462 103.025 19.2715 103.025 18.7275C103.025 18.1728 102.913 17.6982 102.689 17.3035C102.465 16.8982 102.161 16.5888 101.777 16.3755C101.403 16.1622 100.977 16.0555 100.497 16.0555C100.017 16.0555 99.5846 16.1622 99.2006 16.3755C98.8166 16.5888 98.5126 16.8982 98.2886 17.3035C98.0646 17.6982 97.9526 18.1728 97.9526 18.7275C97.9526 19.2715 98.0646 19.7462 98.2886 20.1515C98.5126 20.5568 98.8166 20.8662 99.2006 21.0795C99.5846 21.2928 100.017 21.3995 100.497 21.3995ZM113.175 22.9995L110.087 18.9035L111.719 17.8955L115.527 22.9995H113.175ZM107.047 22.9995V14.4555H109.047V22.9995H107.047ZM108.455 19.5755V17.9115H111.351V19.5755H108.455ZM111.911 18.9675L110.039 18.7435L113.175 14.4555H115.319L111.911 18.9675ZM120.465 23.1115C119.59 23.1115 118.811 22.9248 118.129 22.5515C117.446 22.1675 116.907 21.6448 116.513 20.9835C116.118 20.3222 115.921 19.5702 115.921 18.7275C115.921 17.8742 116.118 17.1222 116.513 16.4715C116.907 15.8102 117.446 15.2928 118.129 14.9195C118.811 14.5462 119.59 14.3595 120.465 14.3595C121.35 14.3595 122.134 14.5462 122.817 14.9195C123.51 15.2928 124.049 15.8048 124.433 16.4555C124.827 17.1062 125.025 17.8635 125.025 18.7275C125.025 19.5702 124.827 20.3222 124.433 20.9835C124.049 21.6448 123.51 22.1675 122.817 22.5515C122.134 22.9248 121.35 23.1115 120.465 23.1115ZM120.465 21.3995C120.955 21.3995 121.393 21.2928 121.777 21.0795C122.161 20.8662 122.459 20.5568 122.673 20.1515C122.897 19.7462 123.009 19.2715 123.009 18.7275C123.009 18.1728 122.897 17.6982 122.673 17.3035C122.459 16.8982 122.161 16.5888 121.777 16.3755C121.393 16.1622 120.961 16.0555 120.481 16.0555C119.99 16.0555 119.553 16.1622 119.169 16.3755C118.795 16.5888 118.497 16.8982 118.273 17.3035C118.049 17.6982 117.937 18.1728 117.937 18.7275C117.937 19.2715 118.049 19.7462 118.273 20.1515C118.497 20.5568 118.795 20.8662 119.169 21.0795C119.553 21.2928 119.985 21.3995 120.465 21.3995ZM125.659 22.9835L125.755 21.3035C125.829 21.3142 125.899 21.3248 125.963 21.3355C126.027 21.3462 126.085 21.3515 126.139 21.3515C126.469 21.3515 126.725 21.2502 126.907 21.0475C127.088 20.8448 127.221 20.5728 127.307 20.2315C127.403 19.8795 127.467 19.4902 127.499 19.0635C127.541 18.6262 127.573 18.1888 127.595 17.7515L127.739 14.4555H134.651V22.9995H132.651V15.6075L133.115 16.1515H129.051L129.483 15.5915L129.371 17.8475C129.339 18.6048 129.275 19.3088 129.179 19.9595C129.093 20.5995 128.955 21.1595 128.763 21.6395C128.581 22.1195 128.325 22.4928 127.995 22.7595C127.675 23.0262 127.264 23.1595 126.763 23.1595C126.603 23.1595 126.427 23.1435 126.235 23.1115C126.053 23.0795 125.861 23.0368 125.659 22.9835ZM141.152 23.1115C140.277 23.1115 139.499 22.9248 138.816 22.5515C138.133 22.1675 137.595 21.6448 137.2 20.9835C136.805 20.3222 136.608 19.5702 136.608 18.7275C136.608 17.8742 136.805 17.1222 137.2 16.4715C137.595 15.8102 138.133 15.2928 138.816 14.9195C139.499 14.5462 140.277 14.3595 141.152 14.3595C142.037 14.3595 142.821 14.5462 143.504 14.9195C144.197 15.2928 144.736 15.8048 145.12 16.4555C145.515 17.1062 145.712 17.8635 145.712 18.7275C145.712 19.5702 145.515 20.3222 145.12 20.9835C144.736 21.6448 144.197 22.1675 143.504 22.5515C142.821 22.9248 142.037 23.1115 141.152 23.1115ZM141.152 21.3995C141.643 21.3995 142.08 21.2928 142.464 21.0795C142.848 20.8662 143.147 20.5568 143.36 20.1515C143.584 19.7462 143.696 19.2715 143.696 18.7275C143.696 18.1728 143.584 17.6982 143.36 17.3035C143.147 16.8982 142.848 16.5888 142.464 16.3755C142.08 16.1622 141.648 16.0555 141.168 16.0555C140.677 16.0555 140.24 16.1622 139.856 16.3755C139.483 16.5888 139.184 16.8982 138.96 17.3035C138.736 17.6982 138.624 18.1728 138.624 18.7275C138.624 19.2715 138.736 19.7462 138.96 20.1515C139.184 20.5568 139.483 20.8662 139.856 21.0795C140.24 21.2928 140.672 21.3995 141.152 21.3995ZM147.688 22.9995V14.4555H154.248V16.1515H149.224L149.688 15.7035V22.9995H147.688ZM155.703 22.9995V14.4555H157.703V20.0875L162.423 14.4555H164.247V22.9995H162.247V17.3675L157.543 22.9995H155.703ZM172.33 19.6235C171.924 19.8155 171.492 19.9755 171.034 20.1035C170.586 20.2208 170.111 20.2795 169.61 20.2795C168.532 20.2795 167.695 20.0288 167.098 19.5275C166.5 19.0262 166.202 18.2475 166.202 17.1915V14.4555H168.202V17.0635C168.202 17.6288 168.362 18.0395 168.682 18.2955C169.012 18.5515 169.466 18.6795 170.042 18.6795C170.426 18.6795 170.81 18.6315 171.194 18.5355C171.578 18.4395 171.956 18.3062 172.33 18.1355V19.6235ZM172.186 22.9995V14.4555H174.186V22.9995H172.186ZM180.859 23.1115C179.91 23.1115 179.078 22.9248 178.363 22.5515C177.659 22.1675 177.11 21.6448 176.715 20.9835C176.331 20.3222 176.139 19.5702 176.139 18.7275C176.139 17.8742 176.326 17.1222 176.699 16.4715C177.083 15.8102 177.606 15.2928 178.267 14.9195C178.939 14.5462 179.702 14.3595 180.555 14.3595C181.387 14.3595 182.129 14.5408 182.779 14.9035C183.43 15.2662 183.942 15.7782 184.315 16.4395C184.689 17.1008 184.875 17.8795 184.875 18.7755C184.875 18.8608 184.87 18.9568 184.859 19.0635C184.859 19.1702 184.854 19.2715 184.843 19.3675H177.723V18.0395H183.787L183.003 18.4555C183.014 17.9648 182.913 17.5328 182.699 17.1595C182.486 16.7862 182.193 16.4928 181.819 16.2795C181.457 16.0662 181.035 15.9595 180.555 15.9595C180.065 15.9595 179.633 16.0662 179.259 16.2795C178.897 16.4928 178.609 16.7915 178.395 17.1755C178.193 17.5488 178.091 17.9915 178.091 18.5035V18.8235C178.091 19.3355 178.209 19.7888 178.443 20.1835C178.678 20.5782 179.009 20.8822 179.435 21.0955C179.862 21.3088 180.353 21.4155 180.907 21.4155C181.387 21.4155 181.819 21.3408 182.203 21.1915C182.587 21.0422 182.929 20.8075 183.227 20.4875L184.299 21.7195C183.915 22.1675 183.43 22.5142 182.843 22.7595C182.267 22.9942 181.606 23.1115 180.859 23.1115ZM190.951 23.1115C190.055 23.1115 189.255 22.9248 188.551 22.5515C187.857 22.1675 187.313 21.6448 186.919 20.9835C186.524 20.3222 186.327 19.5702 186.327 18.7275C186.327 17.8742 186.524 17.1222 186.919 16.4715C187.313 15.8102 187.857 15.2928 188.551 14.9195C189.255 14.5462 190.055 14.3595 190.951 14.3595C191.783 14.3595 192.513 14.5302 193.143 14.8715C193.783 15.2022 194.268 15.6928 194.599 16.3435L193.063 17.2395C192.807 16.8342 192.492 16.5355 192.119 16.3435C191.756 16.1515 191.361 16.0555 190.935 16.0555C190.444 16.0555 190.001 16.1622 189.607 16.3755C189.212 16.5888 188.903 16.8982 188.679 17.3035C188.455 17.6982 188.343 18.1728 188.343 18.7275C188.343 19.2822 188.455 19.7622 188.679 20.1675C188.903 20.5622 189.212 20.8662 189.607 21.0795C190.001 21.2928 190.444 21.3995 190.935 21.3995C191.361 21.3995 191.756 21.3035 192.119 21.1115C192.492 20.9195 192.807 20.6208 193.063 20.2155L194.599 21.1115C194.268 21.7515 193.783 22.2475 193.143 22.5995C192.513 22.9408 191.783 23.1115 190.951 23.1115ZM202.488 22.9995L199.4 18.9035L201.032 17.8955L204.84 22.9995H202.488ZM196.36 22.9995V14.4555H198.36V22.9995H196.36ZM197.768 19.5755V17.9115H200.664V19.5755H197.768ZM201.224 18.9675L199.352 18.7435L202.488 14.4555H204.632L201.224 18.9675ZM211.278 22.9995V21.2715L211.166 20.9035V17.8795C211.166 17.2928 210.99 16.8395 210.638 16.5195C210.286 16.1888 209.753 16.0235 209.038 16.0235C208.558 16.0235 208.083 16.0982 207.614 16.2475C207.155 16.3968 206.766 16.6048 206.446 16.8715L205.662 15.4155C206.121 15.0635 206.665 14.8022 207.294 14.6315C207.934 14.4502 208.595 14.3595 209.278 14.3595C210.515 14.3595 211.47 14.6582 212.142 15.2555C212.825 15.8422 213.166 16.7542 213.166 17.9915V22.9995H211.278ZM208.59 23.1115C207.95 23.1115 207.39 23.0048 206.91 22.7915C206.43 22.5675 206.057 22.2635 205.79 21.8795C205.534 21.4848 205.406 21.0422 205.406 20.5515C205.406 20.0715 205.518 19.6395 205.742 19.2555C205.977 18.8715 206.355 18.5675 206.878 18.3435C207.401 18.1195 208.094 18.0075 208.958 18.0075H211.438V19.3355H209.102C208.419 19.3355 207.961 19.4475 207.726 19.6715C207.491 19.8848 207.374 20.1515 207.374 20.4715C207.374 20.8342 207.518 21.1222 207.806 21.3355C208.094 21.5488 208.494 21.6555 209.006 21.6555C209.497 21.6555 209.934 21.5435 210.318 21.3195C210.713 21.0955 210.995 20.7648 211.166 20.3275L211.502 21.5275C211.31 22.0288 210.963 22.4182 210.462 22.6955C209.971 22.9728 209.347 23.1115 208.59 23.1115ZM221.065 22.9995V20.0875L221.353 20.4235H218.793C217.62 20.4235 216.697 20.1782 216.025 19.6875C215.364 19.1862 215.033 18.4662 215.033 17.5275C215.033 16.5248 215.385 15.7622 216.089 15.2395C216.804 14.7168 217.753 14.4555 218.937 14.4555H222.857V22.9995H221.065ZM214.921 22.9995L217.225 19.7355H219.273L217.065 22.9995H214.921ZM221.065 19.4475V15.6075L221.353 16.1355H219.001C218.382 16.1355 217.902 16.2528 217.561 16.4875C217.23 16.7115 217.065 17.0795 217.065 17.5915C217.065 18.5515 217.689 19.0315 218.937 19.0315H221.353L221.065 19.4475ZM236.097 22.9995L233.009 18.9035L234.641 17.8955L238.449 22.9995H236.097ZM229.969 22.9995V14.4555H231.969V22.9995H229.969ZM231.377 19.5755V17.9115H234.273V19.5755H231.377ZM234.833 18.9675L232.961 18.7435L236.097 14.4555H238.241L234.833 18.9675ZM238.612 22.9835L238.708 21.3035C238.782 21.3142 238.852 21.3248 238.916 21.3355C238.98 21.3462 239.038 21.3515 239.092 21.3515C239.422 21.3515 239.678 21.2502 239.86 21.0475C240.041 20.8448 240.174 20.5728 240.26 20.2315C240.356 19.8795 240.42 19.4902 240.452 19.0635C240.494 18.6262 240.526 18.1888 240.548 17.7515L240.692 14.4555H247.604V22.9995H245.604V15.6075L246.068 16.1515H242.004L242.436 15.5915L242.324 17.8475C242.292 18.6048 242.228 19.3088 242.132 19.9595C242.046 20.5995 241.908 21.1595 241.716 21.6395C241.534 22.1195 241.278 22.4928 240.948 22.7595C240.628 23.0262 240.217 23.1595 239.716 23.1595C239.556 23.1595 239.38 23.1435 239.188 23.1115C239.006 23.0795 238.814 23.0368 238.612 22.9835ZM250.297 22.9995V14.4555H252.297V20.0875L257.017 14.4555H258.841V22.9995H256.841V17.3675L252.137 22.9995H250.297ZM261.532 22.9995V14.4555H263.532V17.9275H267.836V14.4555H269.836V22.9995H267.836V19.6235H263.532V22.9995H261.532ZM272.516 22.9995V14.4555H274.516V20.0875L279.236 14.4555H281.06V22.9995H279.06V17.3675L274.356 22.9995H272.516ZM289.878 22.9995L286.79 18.9035L288.422 17.8955L292.23 22.9995H289.878ZM283.75 22.9995V14.4555H285.75V22.9995H283.75ZM285.158 19.5755V17.9115H288.054V19.5755H285.158ZM288.614 18.9675L286.742 18.7435L289.878 14.4555H292.022L288.614 18.9675ZM298.669 22.9995V21.2715L298.557 20.9035V17.8795C298.557 17.2928 298.381 16.8395 298.029 16.5195C297.677 16.1888 297.143 16.0235 296.429 16.0235C295.949 16.0235 295.474 16.0982 295.005 16.2475C294.546 16.3968 294.157 16.6048 293.837 16.8715L293.053 15.4155C293.511 15.0635 294.055 14.8022 294.685 14.6315C295.325 14.4502 295.986 14.3595 296.669 14.3595C297.906 14.3595 298.861 14.6582 299.533 15.2555C300.215 15.8422 300.557 16.7542 300.557 17.9915V22.9995H298.669ZM295.981 23.1115C295.341 23.1115 294.781 23.0048 294.301 22.7915C293.821 22.5675 293.447 22.2635 293.181 21.8795C292.925 21.4848 292.797 21.0422 292.797 20.5515C292.797 20.0715 292.909 19.6395 293.133 19.2555C293.367 18.8715 293.746 18.5675 294.269 18.3435C294.791 18.1195 295.485 18.0075 296.349 18.0075H298.829V19.3355H296.493C295.81 19.3355 295.351 19.4475 295.117 19.6715C294.882 19.8848 294.765 20.1515 294.765 20.4715C294.765 20.8342 294.909 21.1222 295.197 21.3355C295.485 21.5488 295.885 21.6555 296.397 21.6555C296.887 21.6555 297.325 21.5435 297.709 21.3195C298.103 21.0955 298.386 20.7648 298.557 20.3275L298.893 21.5275C298.701 22.0288 298.354 22.4182 297.853 22.6955C297.362 22.9728 296.738 23.1115 295.981 23.1115ZM74.944 43.8155L72.672 40.7275L74.944 37.6235H76.752L74.528 40.7275L76.752 43.8155H74.944ZM78.272 43.8155L76 40.7275L78.272 37.6235H80.08L77.856 40.7275L80.08 43.8155H78.272ZM87.2505 45.1595C86.3972 45.1595 85.6025 45.0208 84.8665 44.7435C84.1412 44.4555 83.5065 44.0555 82.9625 43.5435C82.4292 43.0208 82.0132 42.4075 81.7145 41.7035C81.4158 40.9995 81.2665 40.2315 81.2665 39.3995C81.2665 38.5675 81.4158 37.7995 81.7145 37.0955C82.0132 36.3915 82.4345 35.7835 82.9785 35.2715C83.5225 34.7488 84.1572 34.3488 84.8825 34.0715C85.6078 33.7835 86.4025 33.6395 87.2665 33.6395C88.1838 33.6395 89.0212 33.7995 89.7785 34.1195C90.5358 34.4288 91.1758 34.8928 91.6985 35.5115L90.3545 36.7755C89.9492 36.3382 89.4958 36.0128 88.9945 35.7995C88.4932 35.5755 87.9492 35.4635 87.3625 35.4635C86.7758 35.4635 86.2372 35.5595 85.7465 35.7515C85.2665 35.9435 84.8452 36.2155 84.4825 36.5675C84.1305 36.9195 83.8532 37.3355 83.6505 37.8155C83.4585 38.2955 83.3625 38.8235 83.3625 39.3995C83.3625 39.9755 83.4585 40.5035 83.6505 40.9835C83.8532 41.4635 84.1305 41.8795 84.4825 42.2315C84.8452 42.5835 85.2665 42.8555 85.7465 43.0475C86.2372 43.2395 86.7758 43.3355 87.3625 43.3355C87.9492 43.3355 88.4932 43.2288 88.9945 43.0155C89.4958 42.7915 89.9492 42.4555 90.3545 42.0075L91.6985 43.2875C91.1758 43.8955 90.5358 44.3595 89.7785 44.6795C89.0212 44.9995 88.1785 45.1595 87.2505 45.1595ZM98.6374 44.9995V43.2715L98.5254 42.9035V39.8795C98.5254 39.2928 98.3494 38.8395 97.9974 38.5195C97.6454 38.1888 97.112 38.0235 96.3974 38.0235C95.9174 38.0235 95.4427 38.0982 94.9734 38.2475C94.5147 38.3968 94.1254 38.6048 93.8054 38.8715L93.0214 37.4155C93.48 37.0635 94.024 36.8022 94.6534 36.6315C95.2934 36.4502 95.9547 36.3595 96.6374 36.3595C97.8747 36.3595 98.8294 36.6582 99.5014 37.2555C100.184 37.8422 100.525 38.7542 100.525 39.9915V44.9995H98.6374ZM95.9494 45.1115C95.3094 45.1115 94.7494 45.0048 94.2694 44.7915C93.7894 44.5675 93.416 44.2635 93.1494 43.8795C92.8934 43.4848 92.7654 43.0422 92.7654 42.5515C92.7654 42.0715 92.8774 41.6395 93.1014 41.2555C93.336 40.8715 93.7147 40.5675 94.2374 40.3435C94.76 40.1195 95.4534 40.0075 96.3174 40.0075H98.7974V41.3355H96.4614C95.7787 41.3355 95.32 41.4475 95.0854 41.6715C94.8507 41.8848 94.7334 42.1515 94.7334 42.4715C94.7334 42.8342 94.8774 43.1222 95.1654 43.3355C95.4534 43.5488 95.8534 43.6555 96.3654 43.6555C96.856 43.6555 97.2934 43.5435 97.6774 43.3195C98.072 43.0955 98.3547 42.7648 98.5254 42.3275L98.8614 43.5275C98.6694 44.0288 98.3227 44.4182 97.8214 44.6955C97.3307 44.9728 96.7067 45.1115 95.9494 45.1115ZM104.776 44.9995V37.6715L105.24 38.1515H101.768V36.4555H109.768V38.1515H106.312L106.776 37.6715V44.9995H104.776ZM116.403 44.9995V43.2715L116.291 42.9035V39.8795C116.291 39.2928 116.115 38.8395 115.763 38.5195C115.411 38.1888 114.878 38.0235 114.163 38.0235C113.683 38.0235 113.208 38.0982 112.739 38.2475C112.28 38.3968 111.891 38.6048 111.571 38.8715L110.787 37.4155C111.246 37.0635 111.79 36.8022 112.419 36.6315C113.059 36.4502 113.72 36.3595 114.403 36.3595C115.64 36.3595 116.595 36.6582 117.267 37.2555C117.95 37.8422 118.291 38.7542 118.291 39.9915V44.9995H116.403ZM113.715 45.1115C113.075 45.1115 112.515 45.0048 112.035 44.7915C111.555 44.5675 111.182 44.2635 110.915 43.8795C110.659 43.4848 110.531 43.0422 110.531 42.5515C110.531 42.0715 110.643 41.6395 110.867 41.2555C111.102 40.8715 111.48 40.5675 112.003 40.3435C112.526 40.1195 113.219 40.0075 114.083 40.0075H116.563V41.3355H114.227C113.544 41.3355 113.086 41.4475 112.851 41.6715C112.616 41.8848 112.499 42.1515 112.499 42.4715C112.499 42.8342 112.643 43.1222 112.931 43.3355C113.219 43.5488 113.619 43.6555 114.131 43.6555C114.622 43.6555 115.059 43.5435 115.443 43.3195C115.838 43.0955 116.12 42.7648 116.291 42.3275L116.627 43.5275C116.435 44.0288 116.088 44.4182 115.587 44.6955C115.096 44.9728 114.472 45.1115 113.715 45.1115ZM120.766 44.9995V36.4555H122.766V39.9275H127.07V36.4555H129.07V44.9995H127.07V41.6235H122.766V44.9995H120.766ZM131.75 44.9995V36.4555H133.75V42.0875L138.47 36.4555H140.294V44.9995H138.294V39.3675L133.59 44.9995H131.75ZM143.929 43.8155H142.121L144.345 40.7275L142.121 37.6235H143.929L146.201 40.7275L143.929 43.8155ZM147.257 43.8155H145.449L147.673 40.7275L145.449 37.6235H147.257L149.529 40.7275L147.257 43.8155ZM155.969 44.9995V36.4555H160.145C161.18 36.4555 161.99 36.6475 162.577 37.0315C163.174 37.4155 163.473 37.9595 163.473 38.6635C163.473 39.3568 163.196 39.9008 162.641 40.2955C162.086 40.6795 161.35 40.8715 160.433 40.8715L160.673 40.3755C161.708 40.3755 162.476 40.5675 162.977 40.9515C163.489 41.3248 163.745 41.8742 163.745 42.5995C163.745 43.3568 163.462 43.9488 162.897 44.3755C162.332 44.7915 161.473 44.9995 160.321 44.9995H155.969ZM157.873 43.5435H160.161C160.705 43.5435 161.116 43.4582 161.393 43.2875C161.67 43.1062 161.809 42.8342 161.809 42.4715C161.809 42.0875 161.681 41.8048 161.425 41.6235C161.169 41.4422 160.769 41.3515 160.225 41.3515H157.873V43.5435ZM157.873 40.0235H159.969C160.481 40.0235 160.865 39.9328 161.121 39.7515C161.388 39.5595 161.521 39.2928 161.521 38.9515C161.521 38.5995 161.388 38.3382 161.121 38.1675C160.865 37.9968 160.481 37.9115 159.969 37.9115H157.873V40.0235ZM170.537 44.9995V33.7995H172.233L177.145 41.9755H176.233L181.065 33.7995H182.761L182.793 44.9995H180.809L180.793 36.8875H181.209L177.113 43.7195H176.185L172.025 36.8875H172.505V44.9995H170.537ZM189.511 45.1115C188.637 45.1115 187.858 44.9248 187.175 44.5515C186.493 44.1675 185.954 43.6448 185.559 42.9835C185.165 42.3222 184.967 41.5702 184.967 40.7275C184.967 39.8742 185.165 39.1222 185.559 38.4715C185.954 37.8102 186.493 37.2928 187.175 36.9195C187.858 36.5462 188.637 36.3595 189.511 36.3595C190.397 36.3595 191.181 36.5462 191.863 36.9195C192.557 37.2928 193.095 37.8048 193.479 38.4555C193.874 39.1062 194.071 39.8635 194.071 40.7275C194.071 41.5702 193.874 42.3222 193.479 42.9835C193.095 43.6448 192.557 44.1675 191.863 44.5515C191.181 44.9248 190.397 45.1115 189.511 45.1115ZM189.511 43.3995C190.002 43.3995 190.439 43.2928 190.823 43.0795C191.207 42.8662 191.506 42.5568 191.719 42.1515C191.943 41.7462 192.055 41.2715 192.055 40.7275C192.055 40.1728 191.943 39.6982 191.719 39.3035C191.506 38.8982 191.207 38.5888 190.823 38.3755C190.439 38.1622 190.007 38.0555 189.527 38.0555C189.037 38.0555 188.599 38.1622 188.215 38.3755C187.842 38.5888 187.543 38.8982 187.319 39.3035C187.095 39.6982 186.983 40.1728 186.983 40.7275C186.983 41.2715 187.095 41.7462 187.319 42.1515C187.543 42.5568 187.842 42.8662 188.215 43.0795C188.599 43.2928 189.031 43.3995 189.511 43.3995ZM199.935 45.1115C199.039 45.1115 198.239 44.9248 197.535 44.5515C196.842 44.1675 196.298 43.6448 195.903 42.9835C195.508 42.3222 195.311 41.5702 195.311 40.7275C195.311 39.8742 195.508 39.1222 195.903 38.4715C196.298 37.8102 196.842 37.2928 197.535 36.9195C198.239 36.5462 199.039 36.3595 199.935 36.3595C200.767 36.3595 201.498 36.5302 202.127 36.8715C202.767 37.2022 203.252 37.6928 203.583 38.3435L202.047 39.2395C201.791 38.8342 201.476 38.5355 201.103 38.3435C200.74 38.1515 200.346 38.0555 199.919 38.0555C199.428 38.0555 198.986 38.1622 198.591 38.3755C198.196 38.5888 197.887 38.8982 197.663 39.3035C197.439 39.6982 197.327 40.1728 197.327 40.7275C197.327 41.2822 197.439 41.7622 197.663 42.1675C197.887 42.5622 198.196 42.8662 198.591 43.0795C198.986 43.2928 199.428 43.3995 199.919 43.3995C200.346 43.3995 200.74 43.3035 201.103 43.1115C201.476 42.9195 201.791 42.6208 202.047 42.2155L203.583 43.1115C203.252 43.7515 202.767 44.2475 202.127 44.5995C201.498 44.9408 200.767 45.1115 199.935 45.1115ZM211.472 44.9995L208.384 40.9035L210.016 39.8955L213.824 44.9995H211.472ZM205.344 44.9995V36.4555H207.344V44.9995H205.344ZM206.752 41.5755V39.9115H209.648V41.5755H206.752ZM210.208 40.9675L208.336 40.7435L211.472 36.4555H213.616L210.208 40.9675ZM215.235 44.9995V36.4555H219.411C220.445 36.4555 221.256 36.6475 221.843 37.0315C222.44 37.4155 222.739 37.9595 222.739 38.6635C222.739 39.3568 222.461 39.9008 221.907 40.2955C221.352 40.6795 220.616 40.8715 219.699 40.8715L219.939 40.3755C220.973 40.3755 221.741 40.5675 222.243 40.9515C222.755 41.3248 223.011 41.8742 223.011 42.5995C223.011 43.3568 222.728 43.9488 222.163 44.3755C221.597 44.7915 220.739 44.9995 219.587 44.9995H215.235ZM217.139 43.5435H219.427C219.971 43.5435 220.381 43.4582 220.659 43.2875C220.936 43.1062 221.075 42.8342 221.075 42.4715C221.075 42.0875 220.947 41.8048 220.691 41.6235C220.435 41.4422 220.035 41.3515 219.491 41.3515H217.139V43.5435ZM217.139 40.0235H219.235C219.747 40.0235 220.131 39.9328 220.387 39.7515C220.653 39.5595 220.787 39.2928 220.787 38.9515C220.787 38.5995 220.653 38.3382 220.387 38.1675C220.131 37.9968 219.747 37.9115 219.235 37.9115H217.139V40.0235ZM229.125 45.1115C228.176 45.1115 227.344 44.9248 226.629 44.5515C225.925 44.1675 225.376 43.6448 224.981 42.9835C224.597 42.3222 224.405 41.5702 224.405 40.7275C224.405 39.8742 224.592 39.1222 224.965 38.4715C225.349 37.8102 225.872 37.2928 226.533 36.9195C227.205 36.5462 227.968 36.3595 228.821 36.3595C229.653 36.3595 230.394 36.5408 231.045 36.9035C231.696 37.2662 232.208 37.7782 232.581 38.4395C232.954 39.1008 233.141 39.8795 233.141 40.7755C233.141 40.8608 233.136 40.9568 233.125 41.0635C233.125 41.1702 233.12 41.2715 233.109 41.3675H225.989V40.0395H232.053L231.269 40.4555C231.28 39.9648 231.178 39.5328 230.965 39.1595C230.752 38.7862 230.458 38.4928 230.085 38.2795C229.722 38.0662 229.301 37.9595 228.821 37.9595C228.33 37.9595 227.898 38.0662 227.525 38.2795C227.162 38.4928 226.874 38.7915 226.661 39.1755C226.458 39.5488 226.357 39.9915 226.357 40.5035V40.8235C226.357 41.3355 226.474 41.7888 226.709 42.1835C226.944 42.5782 227.274 42.8822 227.701 43.0955C228.128 43.3088 228.618 43.4155 229.173 43.4155C229.653 43.4155 230.085 43.3408 230.469 43.1915C230.853 43.0422 231.194 42.8075 231.493 42.4875L232.565 43.7195C232.181 44.1675 231.696 44.5142 231.109 44.7595C230.533 44.9942 229.872 45.1115 229.125 45.1115Z" fill="#1E3301"/>
<defs>
<linearGradient id="paint0_linear_175_3127" x1="60.4274" y1="20.2378" x2="42.4754" y2="33.809" gradientUnits="userSpaceOnUse">
<stop offset="0.261812" stop-color="#718C56" stop-opacity="0.02"/>
<stop offset="0.396907" stop-color="#568C5B" stop-opacity="0.05"/>
<stop offset="0.5509" stop-color="#568C5B" stop-opacity="0.1"/>
<stop offset="0.675497" stop-color="#568C58" stop-opacity="0.3"/>
<stop offset="0.842598" stop-color="#578C56" stop-opacity="0.5"/>
<stop offset="1" stop-color="#568C5B" stop-opacity="0.7"/>
</linearGradient>
</defs>
</svg>
