<svg width="43" height="26" viewBox="0 0 43 26" fill="none" xmlns="http://www.w3.org/2000/svg">
<path d="M42.8673 12.8693C42.8673 19.9309 37.1297 25.7385 30.0071 25.7385C22.9505 25.7385 17.147 19.9309 17.147 12.8693C17.147 5.80767 22.8846 0 29.9412 0C37.1297 0 42.8673 5.80767 42.8673 12.8693Z" fill="#F9B50B"/>
<path d="M25.6544 12.9353C25.6544 12.0113 25.5225 11.0874 25.3906 10.2294H17.4766C17.5426 9.76744 17.6745 9.37147 17.8064 8.8435H24.863C24.7311 8.38152 24.5332 7.91955 24.3354 7.45757H18.334C18.5318 6.9956 18.7956 6.59962 19.0594 6.07165H23.6099C23.3461 5.60968 23.0164 5.14771 22.6207 4.68573H20.1146C20.5103 4.22376 20.906 3.82778 21.4336 3.36581C19.1913 1.25393 16.1576 0 12.7942 0C5.80356 0.197989 0 5.80767 0 12.8693C0 19.9309 5.73761 25.7385 12.8602 25.7385C16.2236 25.7385 19.1913 24.4186 21.4995 22.3727C21.9612 21.9767 22.3569 21.5148 22.8185 20.9868H20.1806C19.8508 20.5908 19.5211 20.1289 19.2573 19.6669H23.7418C24.0056 19.2709 24.2694 18.8089 24.4673 18.281H18.4659C18.268 17.885 18.0702 17.423 17.9383 16.895H24.9949C25.3906 15.7071 25.6544 14.3872 25.6544 12.9353Z" fill="#C8191C"/>
<path d="M17.4106 16.1687L17.6085 14.9808C17.5425 14.9808 17.4106 15.0468 17.2787 15.0468C16.8171 15.0468 16.7511 14.7828 16.8171 14.6508L17.2128 12.275H17.9382L18.1361 10.955H17.4766L17.6085 10.1631H16.2235C16.2235 10.1631 15.4321 14.6508 15.4321 15.1788C15.4321 15.9708 15.8938 16.3667 16.5533 16.3667C16.949 16.3667 17.2787 16.2347 17.4106 16.1687Z" fill="white"/>
<path d="M17.8721 13.9907C17.8721 15.9046 19.1911 16.3666 20.2463 16.3666C21.2355 16.3666 21.6971 16.1686 21.6971 16.1686L21.9609 14.8486C21.9609 14.8486 21.2355 15.1786 20.5101 15.1786C18.9932 15.1786 19.257 14.0567 19.257 14.0567H22.0269C22.0269 14.0567 22.2247 13.1987 22.2247 12.8028C22.2247 11.9448 21.7631 10.8229 20.2463 10.8229C18.9273 10.7569 17.8721 12.2748 17.8721 13.9907ZM20.2463 12.0108C20.9717 12.0108 20.8398 12.8688 20.8398 12.9348H19.323C19.3889 12.8688 19.5208 12.0108 20.2463 12.0108Z" fill="white"/>
<path d="M28.8856 16.169L29.1494 14.6511C29.1494 14.6511 28.4899 14.9811 27.9623 14.9811C27.039 14.9811 26.5774 14.2551 26.5774 13.3972C26.5774 11.7473 27.3687 10.8893 28.358 10.8893C29.0175 10.8893 29.611 11.2853 29.611 11.2853L29.8089 9.8334C29.8089 9.8334 29.0175 9.50342 28.2261 9.50342C26.6433 9.50342 25.1265 10.8893 25.1265 13.4632C25.1265 15.1791 25.9179 16.301 27.5666 16.301C28.1601 16.367 28.8856 16.169 28.8856 16.169Z" fill="white"/>
<path d="M9.95777 10.7568C9.03448 10.7568 8.30904 11.0208 8.30904 11.0208L8.11119 12.2088C8.11119 12.2088 8.70473 11.9448 9.62803 11.9448C10.0897 11.9448 10.4854 12.0108 10.4854 12.4067C10.4854 12.6707 10.4194 12.7367 10.4194 12.7367H9.82587C8.63878 12.7367 7.38574 13.1987 7.38574 14.7826C7.38574 16.0365 8.17714 16.3005 8.70473 16.3005C9.62803 16.3005 10.0897 15.7066 10.1556 15.7066L10.0897 16.2345H11.2108L11.7384 12.4727C11.7384 10.8228 10.4194 10.7568 9.95777 10.7568ZM10.2216 13.7927C10.2216 13.9907 10.0897 15.1126 9.29828 15.1126C8.90258 15.1126 8.77068 14.7826 8.77068 14.5846C8.77068 14.2546 8.96853 13.7927 10.0237 13.7927C10.1556 13.7927 10.2216 13.7927 10.2216 13.7927Z" fill="white"/>
<path d="M13.0579 16.3011C13.3877 16.3011 15.1024 16.3671 15.1024 14.5192C15.1024 12.8033 13.4536 13.1333 13.4536 12.4733C13.4536 12.1433 13.7174 12.0113 14.1791 12.0113C14.3769 12.0113 15.1024 12.0773 15.1024 12.0773L15.3002 10.8234C15.3002 10.8234 14.8386 10.6914 13.9812 10.6914C12.992 10.6914 11.9368 11.0874 11.9368 12.4733C11.9368 14.0572 13.6515 13.9252 13.6515 14.5192C13.6515 14.9152 13.1898 14.9812 12.8601 14.9812C12.2665 14.9812 11.607 14.7832 11.607 14.7832L11.4092 16.0371C11.5411 16.1691 11.9368 16.3011 13.0579 16.3011Z" fill="white"/>
<path d="M40.2289 9.70166L39.9651 11.5496C39.9651 11.5496 39.4375 10.8896 38.6461 10.8896C37.3931 10.8896 36.3379 12.4075 36.3379 14.1894C36.3379 15.3113 36.8655 16.4333 38.0526 16.4333C38.844 16.4333 39.3716 15.9053 39.3716 15.9053L39.3056 16.3673H40.6906L41.6798 9.83365L40.2289 9.70166ZM39.5694 13.2655C39.5694 13.9914 39.2397 14.9814 38.4483 14.9814C37.9866 14.9814 37.7228 14.5854 37.7228 13.8594C37.7228 12.7375 38.1845 12.0775 38.844 12.0775C39.3056 12.1435 39.5694 12.4735 39.5694 13.2655Z" fill="white"/>
<path d="M2.50698 16.2353L3.29837 11.3516L3.43027 16.2353H4.35356L6.1342 11.3516L5.40876 16.2353H6.85965L7.98079 9.70166H5.7385L4.35356 13.7274L4.28762 9.70166H2.30913L1.18799 16.2353H2.50698Z" fill="white"/>
<path d="M23.6101 16.2349C24.0058 13.991 24.0717 12.1431 25.061 12.4731C25.1929 11.6151 25.3907 11.2191 25.5226 10.8892H25.2588C24.6653 10.8892 24.1377 11.6811 24.1377 11.6811L24.2696 10.9552H22.9506L22.0933 16.2349H23.6101Z" fill="white"/>
<path d="M32.051 10.7568C31.1277 10.7568 30.4023 11.0208 30.4023 11.0208L30.2044 12.2088C30.2044 12.2088 30.798 11.9448 31.7213 11.9448C32.1829 11.9448 32.5786 12.0108 32.5786 12.4067C32.5786 12.6707 32.5127 12.7367 32.5127 12.7367H31.9191C30.732 12.7367 29.479 13.1987 29.479 14.7826C29.479 16.0365 30.2704 16.3005 30.798 16.3005C31.7213 16.3005 32.1829 15.7066 32.2489 15.7066L32.1829 16.2345H33.436L33.9636 12.4727C33.9636 10.8228 32.5127 10.7568 32.051 10.7568ZM32.3808 13.7927C32.3808 13.9907 32.2489 15.1126 31.4575 15.1126C31.0618 15.1126 30.9299 14.7826 30.9299 14.5846C30.9299 14.2546 31.1277 13.7927 32.1829 13.7927C32.3148 13.7927 32.3148 13.7927 32.3808 13.7927Z" fill="white"/>
<path d="M35.0193 16.2349C35.415 13.991 35.4809 12.1431 36.4702 12.4731C36.6021 11.6151 36.7999 11.2191 36.9318 10.8892H36.668C36.0745 10.8892 35.5469 11.6811 35.5469 11.6811L35.6788 10.9552H34.3598L33.5024 16.2349H35.0193Z" fill="white"/>
</svg>
