<svg width="62" height="20" viewBox="0 0 62 20" fill="none" xmlns="http://www.w3.org/2000/svg">
<path d="M57.8395 1.00342H53.9504C52.7746 1.00342 51.8702 1.36545 51.3275 2.54205L43.9111 19.467H49.1569C49.1569 19.467 50.0613 17.2043 50.2422 16.6613C50.7849 16.6613 55.9402 16.6613 56.6637 16.6613C56.8446 17.2948 57.2968 19.3765 57.2968 19.3765H61.9999L57.8395 1.00342ZM51.6893 12.86C52.1415 11.7739 53.6791 7.70101 53.6791 7.70101C53.6791 7.79151 54.1313 6.61491 54.3122 5.98136L54.674 7.6105C54.674 7.6105 55.6688 12.0454 55.8497 12.9505H51.6893V12.86Z" fill="#3362AB"/>
<path d="M44.2727 13.403C44.2727 17.2044 40.8358 19.7386 35.4996 19.7386C33.2385 19.7386 31.0679 19.2861 29.8921 18.743L30.6156 14.5796L31.2487 14.8512C32.8767 15.5752 33.9621 15.8468 35.9518 15.8468C37.3989 15.8468 38.9365 15.3037 38.9365 14.0366C38.9365 13.222 38.3034 12.679 36.3136 11.7739C34.4143 10.8688 31.8819 9.4207 31.8819 6.79597C31.8819 3.17565 35.4092 0.731934 40.3836 0.731934C42.2829 0.731934 43.9109 1.09397 44.9058 1.54651L44.1822 5.52885L43.8204 5.16682C42.916 4.80479 41.7402 4.44276 40.0218 4.44276C38.1225 4.53327 37.218 5.34784 37.218 6.0719C37.218 6.88647 38.3034 7.52003 40.0218 8.3346C42.916 9.69222 44.2727 11.2309 44.2727 13.403Z" fill="#3362AB"/>
<path d="M0.13623 1.1843L0.226674 0.822266H8.00485C9.09017 0.822266 9.90417 1.1843 10.1755 2.3609L11.8939 10.5066C10.1755 6.16223 6.19597 2.63242 0.13623 1.1843Z" fill="#F9B50B"/>
<path d="M22.8378 1.00359L14.9692 19.3767H9.63303L5.11084 3.99036C8.36682 6.07204 11.0801 9.33033 12.075 11.593L12.6177 13.4937L17.5016 0.913086H22.8378V1.00359Z" fill="#3362AB"/>
<path d="M24.918 0.913086H29.8924L26.7269 19.3767H21.7524L24.918 0.913086Z" fill="#3362AB"/>
</svg>
