<svg width="20" height="20" viewBox="0 0 20 20" fill="none" xmlns="http://www.w3.org/2000/svg">
<g clip-path="url(#clip0_175_3175)">
<path d="M19.6672 17.9999H18.6672V11.6666C18.667 11.4825 18.5177 11.3334 18.3336 11.3335C18.225 11.3336 18.1232 11.3866 18.0608 11.4756L13.3942 18.1422C13.2887 18.2931 13.3255 18.501 13.4763 18.6064C13.5323 18.6455 13.5989 18.6665 13.6672 18.6666H18.0005V19.6666C18.0005 19.8507 18.1498 19.9999 18.3338 19.9999C18.5179 19.9999 18.6672 19.8507 18.6672 19.6666V18.6666H19.6672C19.8513 18.6666 20.0005 18.5173 20.0005 18.3332C20.0005 18.1492 19.8513 17.9999 19.6672 17.9999ZM18.0005 17.9999H14.3072L18.0005 12.7239V17.9999Z" fill="#1E3301"/>
<path d="M13.666 19.3331H9.71968L13.3887 15.0128C13.397 15.0028 13.4048 14.9925 13.412 14.9818C14.1023 13.9602 13.8723 12.5771 12.8887 11.8338C11.6926 10.9744 10.0264 11.2473 9.16706 12.4434C8.84118 12.8969 8.66593 13.4413 8.66602 13.9998C8.66602 14.1838 8.81527 14.3331 8.99935 14.3331C9.18343 14.3331 9.33268 14.1838 9.33268 13.9998C9.33256 12.8952 10.2279 11.9997 11.3325 11.9996C11.7511 11.9995 12.1593 12.1308 12.4993 12.3751C13.1884 12.9031 13.3488 13.8754 12.866 14.5968L8.74535 19.4508C8.62622 19.5911 8.64347 19.8015 8.78385 19.9206C8.84406 19.9717 8.92039 19.9997 8.99935 19.9998H13.666C13.8501 19.9998 13.9993 19.8505 13.9993 19.6664C13.9993 19.4823 13.8501 19.3331 13.666 19.3331Z" fill="#1E3301"/>
<path d="M9.00733 17.673C9.01429 17.489 8.87075 17.3343 8.68679 17.3273C8.68675 17.3273 8.68671 17.3273 8.68667 17.3273C4.33792 17.1659 0.847542 13.6818 0.678333 9.33333H2C2.18408 9.33333 2.33333 9.18408 2.33333 9C2.33333 8.81592 2.18408 8.66667 2 8.66667H0.678333C0.845125 4.32588 4.32583 0.845292 8.66667 0.678667V1.66667C8.66667 1.85075 8.81592 2 9 2C9.18408 2 9.33333 1.85075 9.33333 1.66667V0.678667C13.6147 0.84425 17.0702 4.2345 17.3173 8.512L16.0173 7.212C15.8849 7.08408 15.6739 7.08775 15.546 7.22017C15.4213 7.34933 15.4213 7.55412 15.546 7.68333L17.4067 9.544C17.4417 9.58642 17.4869 9.61929 17.538 9.63967C17.551 9.64358 17.5643 9.64683 17.5777 9.64933C17.6005 9.65758 17.6242 9.66329 17.6483 9.66633C17.6517 9.66633 17.6547 9.66633 17.658 9.66633C17.6613 9.66633 17.6643 9.66633 17.6673 9.66633C17.6927 9.66442 17.7178 9.6595 17.742 9.65167C17.7557 9.65 17.7693 9.64746 17.7827 9.644C17.8278 9.62796 17.8689 9.60225 17.903 9.56867L19.789 7.68333C19.9169 7.55092 19.9132 7.33992 19.7808 7.212C19.6517 7.08725 19.4469 7.08725 19.3177 7.212L17.9853 8.54333C17.7472 3.76542 13.8075 0.0117083 9.02367 0.00466667C9.01533 0.00433333 9.00833 0 9 0C8.99167 0 8.98467 0.00433333 8.97633 0.00466667C4.02425 0.0114583 0.0114583 4.02425 0.00466667 8.97633C0.00466667 8.98467 0 8.99167 0 9C0 9.00833 0.00433333 9.01533 0.00466667 9.02367C0.0129583 13.8535 3.83546 17.8141 8.662 17.9937H8.67433C8.85346 17.9936 9.00054 17.852 9.00733 17.673Z" fill="#1E3301"/>
<path d="M13.479 4.52142C13.3489 4.3913 13.1378 4.3913 13.0077 4.52142L9.42568 8.10309C9.15506 7.98242 8.84593 7.98242 8.57535 8.10309L6.87935 6.40709C6.74693 6.27921 6.53589 6.28288 6.40802 6.4153C6.28327 6.54446 6.28327 6.74926 6.40802 6.87842L8.10068 8.57109C7.86302 9.06859 8.07368 9.66459 8.57122 9.90221C8.9531 10.0846 9.40852 10.0064 9.70768 9.70709C10.0085 9.40884 10.0859 8.95217 9.90035 8.57142L13.479 4.99276C13.6091 4.86259 13.6091 4.65159 13.479 4.52142ZM9.23643 9.23534C9.23639 9.23538 9.23639 9.23538 9.23635 9.23542C9.10452 9.36146 8.89685 9.36146 8.76502 9.23542C8.63481 9.10526 8.63481 8.89421 8.76493 8.76401C8.8951 8.6338 9.10614 8.6338 9.23635 8.76392C9.36656 8.89409 9.36656 9.10517 9.23643 9.23534Z" fill="#1E3301"/>
</g>
<defs>
<clipPath id="clip0_175_3175">
<rect width="20" height="20" fill="white"/>
</clipPath>
</defs>
</svg>
