<svg width="20" height="21" viewBox="0 0 20 21" fill="none" xmlns="http://www.w3.org/2000/svg">
<g clip-path="url(#clip0_175_3160)">
<path d="M15.834 19.6668C17.5757 19.6668 18.7507 18.4418 19.0965 16.3002C19.1358 16.0238 19.1192 15.7423 19.0476 15.4725C18.9761 15.2026 18.851 14.9499 18.6798 14.7293L18.6131 14.6668L16.084 12.6668C15.7018 12.3807 15.2329 12.2345 14.7559 12.2527C14.2788 12.2709 13.8224 12.4524 13.4632 12.7668L12.3715 13.8002C10.0965 13.2835 6.82982 10.3335 6.66732 8.15851L7.74648 7.02101C8.0558 6.65994 8.23231 6.20394 8.24672 5.72872C8.26112 5.25349 8.11254 4.78764 7.82565 4.40851L5.83398 1.88767C5.8132 1.85996 5.78784 1.83601 5.75898 1.81684C5.53894 1.64622 5.28693 1.52144 5.01784 1.44987C4.74875 1.37831 4.46805 1.36141 4.19232 1.40017C2.05898 1.75017 0.833984 2.92517 0.833984 4.66684C0.833984 8.64509 2.41434 12.4604 5.22738 15.2734C8.04043 18.0865 11.8557 19.6668 15.834 19.6668ZM4.32565 2.22934C4.3853 2.22521 4.44517 2.22521 4.50482 2.22934C4.76157 2.23031 5.0118 2.31033 5.22148 2.45851L7.16732 4.91684C7.33643 5.14172 7.42472 5.41707 7.41792 5.69836C7.41111 5.97964 7.3096 6.2504 7.12982 6.46684L5.94648 7.71684C5.87454 7.79368 5.83435 7.89491 5.83398 8.00017C5.83398 10.6835 9.70482 14.2085 12.434 14.6668C12.4974 14.6773 12.5623 14.673 12.6238 14.6542C12.6852 14.6354 12.7415 14.6026 12.7882 14.5585L14.0381 13.3877C14.253 13.2044 14.5236 13.0993 14.8058 13.0895C15.088 13.0796 15.3652 13.1657 15.5923 13.3335L18.0715 15.2835C18.2584 15.5421 18.3362 15.8639 18.2882 16.1793C18.084 17.3877 17.5007 18.8335 15.834 18.8335C12.0768 18.8335 8.4734 17.341 5.81664 14.6842C3.15987 12.0274 1.66732 8.42407 1.66732 4.66684C1.66732 3.00017 3.11315 2.41684 4.32565 2.22934Z" fill="#1E3301"/>
</g>
<defs>
<clipPath id="clip0_175_3160">
<rect width="20" height="20" fill="white" transform="translate(0 0.5)"/>
</clipPath>
</defs>
</svg>
