<svg width="20" height="21" viewBox="0 0 20 21" fill="none" xmlns="http://www.w3.org/2000/svg">
<path d="M16.3008 19.6668C18.0424 19.6668 19.2174 18.4418 19.5633 16.3002C19.6026 16.0238 19.586 15.7423 19.5144 15.4725C19.4429 15.2026 19.3178 14.9499 19.1466 14.7293L19.0799 14.6668L16.5508 12.6668C16.1686 12.3807 15.6997 12.2345 15.2227 12.2527C14.7456 12.2709 14.2892 12.4524 13.9299 12.7668L12.8383 13.8002C10.5633 13.2835 7.29661 10.3335 7.13411 8.15851L8.21328 7.02101C8.5226 6.65994 8.69911 6.20394 8.71351 5.72872C8.72791 5.25349 8.57933 4.78764 8.29245 4.40851L6.30078 1.88767C6.28 1.85996 6.25463 1.83601 6.22578 1.81684C6.00574 1.64622 5.75373 1.52144 5.48464 1.44987C5.21555 1.37831 4.93485 1.36141 4.65911 1.40017C2.52578 1.75017 1.30078 2.92517 1.30078 4.66684C1.30078 8.64509 2.88113 12.4604 5.69418 15.2734C8.50723 18.0865 12.3225 19.6668 16.3008 19.6668ZM4.79245 2.22934C4.8521 2.22521 4.91196 2.22521 4.97161 2.22934C5.22837 2.23031 5.4786 2.31033 5.68828 2.45851L7.63411 4.91684C7.80322 5.14172 7.89152 5.41707 7.88471 5.69836C7.87791 5.97964 7.7764 6.2504 7.59661 6.46684L6.41328 7.71684C6.34134 7.79368 6.30114 7.89491 6.30078 8.00017C6.30078 10.6835 10.1716 14.2085 12.9008 14.6668C12.9642 14.6773 13.0291 14.673 13.0906 14.6542C13.152 14.6354 13.2083 14.6026 13.2549 14.5585L14.5049 13.3877C14.7198 13.2044 14.9904 13.0993 15.2726 13.0895C15.5548 13.0796 15.832 13.1657 16.0591 13.3335L18.5383 15.2835C18.7252 15.5421 18.803 15.8639 18.7549 16.1793C18.5508 17.3877 17.9674 18.8335 16.3008 18.8335C12.5435 18.8335 8.9402 17.341 6.28343 14.6842C3.62667 12.0274 2.13411 8.42407 2.13411 4.66684C2.13411 3.00017 3.57995 2.41684 4.79245 2.22934Z" fill="#1E3301"/>
</svg>
