<svg width="20" height="21" viewBox="0 0 20 21" fill="none" xmlns="http://www.w3.org/2000/svg">
<g clip-path="url(#clip0_175_3152)">
<path d="M10 0.5C4.48577 0.5 0 4.98577 0 10.5C0 12.3812 0.522692 14.2073 1.51423 15.7931C1.11923 17.1769 0.405769 19.7946 0.398077 19.8219C0.361154 19.9573 0.400769 20.1019 0.501923 20.1992C0.603077 20.2965 0.749231 20.3312 0.882308 20.2904L4.84615 19.0712C6.39885 20.0065 8.17692 20.5 10 20.5C15.5142 20.5 20 16.0142 20 10.5C20 4.98577 15.5142 0.5 10 0.5ZM10 19.7308C8.26192 19.7308 6.56885 19.245 5.10346 18.3265C5.04154 18.2877 4.97038 18.2681 4.89923 18.2681C4.86115 18.2681 4.82308 18.2738 4.78615 18.285L1.325 19.3504C1.57923 18.4223 2.03615 16.7623 2.30115 15.8388C2.33192 15.7319 2.31462 15.6165 2.25423 15.5231C1.28269 14.0281 0.769231 12.2912 0.769231 10.5C0.769231 5.41038 4.91038 1.26923 10 1.26923C15.0896 1.26923 19.2308 5.41038 19.2308 10.5C19.2308 15.5896 15.0896 19.7308 10 19.7308Z" fill="#1E3301"/>
<path d="M16.5324 12.8561C15.8224 12.4618 15.2178 12.0665 14.7766 11.778C14.4397 11.558 14.1963 11.3991 14.0178 11.3095C13.519 11.0607 13.1409 11.2365 12.997 11.3818C12.979 11.3999 12.9628 11.4195 12.949 11.4403C12.4309 12.2176 11.7543 12.9611 11.5563 13.0011C11.3274 12.9653 10.2563 12.3565 9.19165 11.4699C8.10472 10.5641 7.42088 9.69684 7.32049 9.10607C8.0178 8.38838 8.26896 7.93684 8.26896 7.423C8.26896 6.89338 7.03357 4.68223 6.81011 4.45877C6.58588 4.23492 6.08088 4.19992 5.30896 4.35377C5.23472 4.36877 5.16626 4.4053 5.11242 4.45877C5.01896 4.55223 2.83203 6.78184 3.87126 9.48415C5.01203 12.4499 7.94011 15.8972 11.6732 16.4572C12.0974 16.5207 12.4951 16.5522 12.8674 16.5522C15.0636 16.5522 16.3597 15.4472 16.7247 13.2553C16.752 13.0949 16.6747 12.9349 16.5324 12.8561ZM11.7874 15.6965C7.83973 15.1045 5.35319 11.1934 4.58934 9.208C3.83165 7.23877 5.22896 5.483 5.57972 5.08607C5.86511 5.03761 6.16549 5.01723 6.29088 5.03684C6.5528 5.40107 7.45972 7.11453 7.49972 7.423C7.49972 7.62492 7.43395 7.90607 6.65088 8.68953C6.57857 8.76146 6.53819 8.85915 6.53819 8.96146C6.53819 10.9753 10.7859 13.7691 11.5382 13.7691C12.1924 13.7691 13.0455 12.6695 13.5313 11.953C13.5593 11.9542 13.6066 11.9638 13.674 11.9976C13.8124 12.0672 14.0524 12.2238 14.3559 12.4222C14.7566 12.6841 15.289 13.0318 15.9174 13.3922C15.632 14.7653 14.8343 16.1542 11.7874 15.6965Z" fill="#1E3301"/>
</g>
<defs>
<clipPath id="clip0_175_3152">
<rect width="20" height="20" fill="white" transform="translate(0 0.5)"/>
</clipPath>
</defs>
</svg>
