<svg width="49" height="15" viewBox="0 0 49 15" fill="none" xmlns="http://www.w3.org/2000/svg">
<path d="M43.721 0.709961H34.4053C34.9479 3.78723 37.9326 6.68349 41.1886 6.68349H48.605C48.6954 6.41197 48.6954 5.95942 48.6954 5.6879C48.6954 2.97266 46.4343 0.709961 43.721 0.709961Z" fill="url(#paint0_linear_175_3209)"/>
<path d="M35.2192 7.22656V14.7387H39.7414V10.7564H43.721C45.8916 10.7564 47.7909 9.21774 48.424 7.22656H35.2192Z" fill="#4FAD50"/>
<path d="M19.3013 0.709961V14.6482H23.2808C23.2808 14.6482 24.2757 14.6482 24.8184 13.6526C27.5317 8.31263 28.3457 6.68349 28.3457 6.68349H28.8883V14.6482H33.4105V0.709961H29.431C29.431 0.709961 28.4361 0.800474 27.8934 1.70555C25.6323 6.32146 24.3661 8.67466 24.3661 8.67466H23.8235V0.709961H19.3013Z" fill="#4FAD50"/>
<path d="M0.308105 14.7385V0.800293H4.8303C4.8303 0.800293 6.09652 0.80029 6.82008 2.79146C8.62895 8.04093 8.80985 8.76499 8.80985 8.76499C8.80985 8.76499 9.17161 7.49788 10.7996 2.79146C11.5232 0.80029 12.7894 0.800293 12.7894 0.800293H17.3116V14.7385H12.7894V7.22636H12.2467L9.71429 14.7385H7.72451L5.1921 7.22636H4.64943V14.7385H0.308105Z" fill="#4FAD50"/>
<defs>
<linearGradient id="paint0_linear_175_3209" x1="34.3892" y1="3.73954" x2="48.6634" y2="3.73954" gradientUnits="userSpaceOnUse">
<stop stop-color="#27B1E6"/>
<stop offset="1" stop-color="#148ACA"/>
</linearGradient>
</defs>
</svg>
