<svg width="22" height="24" viewBox="0 0 22 24" fill="none" xmlns="http://www.w3.org/2000/svg">
<path d="M21.5168 22.2928L15.3223 15.4678C16.5222 13.8349 17.2446 11.7599 17.2446 9.49992C17.2446 4.26197 13.3764 0 8.62229 0C3.86822 0 0 4.26193 0 9.49988C0 14.7378 3.86826 18.9998 8.62233 18.9998C10.6735 18.9998 12.5568 18.2038 14.0389 16.8818L20.2334 23.7068C20.4104 23.9018 20.6427 23.9998 20.8751 23.9998C21.1075 23.9998 21.3398 23.9018 21.5168 23.7068C21.8717 23.3158 21.8717 22.6838 21.5168 22.2928ZM8.62233 16.9998C4.86843 16.9998 1.81524 13.6359 1.81524 9.49988C1.81524 5.3639 4.86843 1.99995 8.62233 1.99995C12.3762 1.99995 15.4294 5.3639 15.4294 9.49988C15.4294 13.6359 12.3762 16.9998 8.62233 16.9998Z" fill="white"/>
</svg>
