<svg width="33" height="32" viewBox="0 0 33 32" fill="none" xmlns="http://www.w3.org/2000/svg">
<path d="M16.6675 5.00073C13.6345 5.00073 11.168 7.46729 11.168 10.5003C11.168 13.5333 13.6345 15.9999 16.6675 15.9999C19.7006 15.9999 22.1671 13.5333 22.1671 10.5003C22.1671 7.46729 19.7006 5.00073 16.6675 5.00073ZM16.6675 14.625C14.3935 14.625 12.5429 12.7744 12.5429 10.5003C12.5429 8.22623 14.3935 6.37563 16.6675 6.37563C18.9416 6.37563 20.7922 8.22623 20.7922 10.5003C20.7922 12.7744 18.9416 14.625 16.6675 14.625Z" fill="#1E3301"/>
<path d="M22.0446 25.9171L17.2324 19.0426C16.9767 18.6769 16.3649 18.6769 16.1064 19.0426L11.2943 25.9171C11.077 26.2278 11.1513 26.6568 11.4634 26.874C11.7741 27.0926 12.2031 27.017 12.4203 26.7063L16.6687 20.6361L20.9185 26.7063C21.0519 26.8974 21.265 26.9991 21.4809 26.9991C21.6183 26.9991 21.7545 26.9592 21.8768 26.874C22.1875 26.6568 22.2632 26.2292 22.0446 25.9171Z" fill="#1E3301"/>
<path d="M23.4723 16.3324C23.2042 16.0643 22.7683 16.0643 22.5002 16.3324C19.2816 19.5497 14.0501 19.5497 10.8343 16.3324C10.5662 16.0643 10.1303 16.0643 9.86221 16.3324C9.59411 16.6005 9.59411 17.0364 9.86221 17.3045C11.7389 19.1798 14.2041 20.1189 16.6679 20.1189C19.1317 20.1189 21.5969 19.1798 23.4723 17.3045C23.7404 17.0364 23.7404 16.6005 23.4723 16.3324Z" fill="#1E3301"/>
<rect x="1.16699" y="0.5" width="31" height="31" rx="15.5" stroke="#1E3301"/>
</svg>
