<svg width="33" height="32" viewBox="0 0 33 32" fill="none" xmlns="http://www.w3.org/2000/svg">
<path d="M24.5417 21.2503H22.2916C21.9455 21.2512 21.6184 21.0918 21.4055 20.819L19.2117 18.0205C19.1132 17.8947 18.9459 17.8449 18.7947 17.8969C18.6437 17.9486 18.5419 18.0904 18.5414 18.2501V19.3751C18.5414 20.4112 17.5335 21.2503 16.2912 21.2503C15.8056 21.2547 15.3289 21.1197 14.9178 20.8613C11.7675 18.8454 9.62991 16.3001 7.77368 12.353C7.61012 12.0047 7.63594 11.597 7.84208 11.2721C8.04822 10.9471 8.40612 10.7502 8.79093 10.7498H11.041C11.4912 10.7487 11.8987 11.0161 12.077 11.4294L12.3301 12.0201C12.7126 12.9075 13.2261 13.7324 13.8537 14.4672C13.8741 14.4891 13.9033 14.5012 13.9333 14.5C13.9609 14.5026 13.9885 14.4934 14.009 14.4746C14.0296 14.4559 14.0413 14.4293 14.0411 14.4015V12.9342C13.5264 12.7503 13.2185 12.2231 13.3109 11.6845C13.4034 11.1458 13.8696 10.7516 14.4162 10.7498H17.4163C18.0376 10.7498 18.5414 11.2535 18.5414 11.8748V14.5C18.5416 14.6674 18.6529 14.8144 18.814 14.8601C18.9751 14.9058 19.1469 14.8392 19.2352 14.6968L21.3305 11.2888C21.5336 10.9525 21.8987 10.7477 22.2916 10.7498H24.5417C24.9574 10.7499 25.3391 10.9794 25.5344 11.3464C25.7297 11.7133 25.7066 12.1581 25.4745 12.503L23.1119 15.7797C23.0164 15.9111 23.0164 16.089 23.1119 16.2204L25.4558 19.4689C25.7019 19.8117 25.7356 20.2634 25.5429 20.6389C25.3502 21.0144 24.9636 21.2503 24.5417 21.2503ZM18.9164 17.125C19.2625 17.1243 19.5895 17.2835 19.8024 17.5564L21.9962 20.3549C22.067 20.4462 22.1759 20.4999 22.2916 20.5002H24.5417C24.6829 20.5007 24.8124 20.4218 24.8767 20.2961C24.9411 20.1703 24.9293 20.0192 24.8463 19.9048L22.5025 16.6563C22.2185 16.2631 22.2185 15.7323 22.5025 15.3391L24.8605 12.0718C24.8975 12.0127 24.917 11.9445 24.9166 11.8748C24.9166 11.6677 24.7488 11.4998 24.5417 11.4998H22.2916C22.1615 11.4999 22.0409 11.5673 21.9728 11.6779L19.8774 15.0859C19.615 15.5168 19.0978 15.7205 18.6121 15.584C18.1263 15.4476 17.791 15.0044 17.7914 14.5V11.8748C17.7914 11.6677 17.6234 11.4998 17.4163 11.4998H14.4162C14.209 11.4998 14.0411 11.6677 14.0411 11.8748C14.0411 12.0819 14.209 12.2499 14.4162 12.2499H14.7911V14.4015C14.7869 14.7574 14.5634 15.0737 14.2293 15.1966C13.8953 15.3193 13.5201 15.2231 13.2863 14.9547C12.6108 14.1635 12.0576 13.2755 11.6457 12.3202L11.3878 11.7295C11.3292 11.59 11.1924 11.4993 11.041 11.4998H8.79093C8.66293 11.5004 8.54414 11.5664 8.47574 11.6746C8.40735 11.7828 8.39897 11.9184 8.45336 12.0343C10.2676 15.8922 12.2598 18.2689 15.3255 20.2331C15.616 20.4109 15.9507 20.5036 16.2912 20.5002C17.1162 20.5002 17.7914 19.994 17.7914 19.3751V18.2501C17.7914 17.6288 18.295 17.125 18.9164 17.125Z" fill="#1E3301"/>
<rect x="1.16699" y="0.5" width="31" height="31" rx="15.5" stroke="#1E3301"/>
</svg>
