<svg width="33" height="32" viewBox="0 0 33 32" fill="none" xmlns="http://www.w3.org/2000/svg">
<path d="M25.3145 8.47477C25.025 8.20944 24.6134 8.12102 24.2403 8.24397L8.4134 13.4612C7.98207 13.6034 7.68957 13.9884 7.66823 14.442C7.64693 14.8957 7.90198 15.3065 8.31802 15.4885L12.2321 17.2011C12.2512 17.2897 13.3749 22.5011 13.4131 22.6783C13.4621 22.9058 13.5776 23.1085 13.8223 23.1708C14.0697 23.2338 14.2446 23.0986 14.4292 22.9604C14.532 22.8834 17.3338 20.7854 17.3338 20.7854L20.7295 23.5641C20.9273 23.7261 21.1691 23.8105 21.4155 23.8105C21.5329 23.8105 21.6514 23.7913 21.7666 23.7522C22.124 23.6311 22.3889 23.3394 22.4753 22.972L25.6382 9.52467C25.7281 9.14235 25.6041 8.74009 25.3145 8.47477ZM14.6822 18.1824C14.6803 18.187 14.6784 18.1921 14.6766 18.1983L14.0218 20.4859L13.2912 17.097L18.3156 14.3054L14.8027 17.9785C14.7474 18.0363 14.7067 18.1063 14.6822 18.1824ZM14.89 21.2946L15.1874 20.2556L15.4719 19.2617L16.4911 20.0958L14.89 21.2946ZM24.6091 9.28259L21.4463 22.7299C21.4447 22.7366 21.4426 22.7458 21.4271 22.7511C21.4118 22.7563 21.4043 22.7503 21.399 22.746L17.6833 19.7054C17.6832 19.7053 17.6832 19.7052 17.6831 19.7051L15.9615 18.2963L21.4924 12.5132C21.673 12.3243 21.6885 12.0318 21.5288 11.8249C21.369 11.6179 21.082 11.5589 20.8536 11.6858L12.6639 16.2361L8.7418 14.52C8.72984 14.5148 8.72327 14.5119 8.72422 14.4917C8.72517 14.4715 8.73199 14.4692 8.74436 14.4652L24.5713 9.24796C24.579 9.24546 24.5876 9.24258 24.6003 9.25418C24.6131 9.26585 24.611 9.27471 24.6091 9.28259Z" fill="#1E3301"/>
<rect x="1.16699" y="0.5" width="31" height="31" rx="15.5" stroke="#1E3301"/>
</svg>
