<svg width="21" height="20" viewBox="0 0 21 20" fill="none" xmlns="http://www.w3.org/2000/svg">
<path d="M10.8003 18.75C10.7318 18.7494 10.6652 18.7275 10.6097 18.6875C10.3378 18.4781 3.92529 13.5312 3.92529 8.125C3.92529 6.30164 4.64962 4.55295 5.93893 3.26364C7.22825 1.97433 8.97693 1.25 10.8003 1.25C12.6237 1.25 14.3723 1.97433 15.6617 3.26364C16.951 4.55295 17.6753 6.30164 17.6753 8.125C17.6753 13.5312 11.2628 18.4781 10.9909 18.6875C10.9354 18.7275 10.8688 18.7494 10.8003 18.75ZM10.8003 1.875C9.14269 1.875 7.55298 2.53348 6.38088 3.70558C5.20877 4.87769 4.55029 6.4674 4.55029 8.125C4.55029 12.7219 9.73467 17.1875 10.8003 18.0375C11.8659 17.1875 17.0503 12.7188 17.0503 8.125C17.0503 6.4674 16.3918 4.87769 15.2197 3.70558C14.0476 2.53348 12.4579 1.875 10.8003 1.875Z" fill="#1E3301"/>
<path d="M10.8003 11.5625C10.1204 11.5625 9.45582 11.3609 8.89052 10.9832C8.32523 10.6055 7.88463 10.0686 7.62446 9.44048C7.36428 8.81236 7.29621 8.12119 7.42885 7.45438C7.56148 6.78757 7.88887 6.17506 8.36961 5.69432C8.85036 5.21358 9.46286 4.88619 10.1297 4.75355C10.7965 4.62092 11.4876 4.68899 12.1158 4.94917C12.7439 5.20934 13.2808 5.64993 13.6585 6.21523C14.0362 6.78052 14.2378 7.44513 14.2378 8.125C14.2378 9.03668 13.8756 9.91103 13.231 10.5557C12.5863 11.2003 11.712 11.5625 10.8003 11.5625ZM10.8003 5.3125C10.244 5.3125 9.70027 5.47745 9.23775 5.78649C8.77524 6.09553 8.41475 6.53479 8.20188 7.0487C7.98901 7.56262 7.93331 8.12812 8.04184 8.67369C8.15036 9.21926 8.41822 9.7204 8.81156 10.1137C9.20489 10.5071 9.70603 10.7749 10.2516 10.8835C10.7972 10.992 11.3627 10.9363 11.8766 10.7234C12.3905 10.5105 12.8298 10.1501 13.1388 9.68754C13.4478 9.22503 13.6128 8.68126 13.6128 8.125C13.6128 7.37908 13.3165 6.66371 12.789 6.13626C12.2616 5.60882 11.5462 5.3125 10.8003 5.3125Z" fill="#1E3301"/>
</svg>
