<svg width="21" height="20" viewBox="0 0 21 20" fill="none" xmlns="http://www.w3.org/2000/svg">
<path d="M16.6343 19.1668C18.3759 19.1668 19.5509 17.9418 19.8968 15.8002C19.9361 15.5238 19.9195 15.2423 19.8479 14.9725C19.7764 14.7026 19.6513 14.4499 19.4801 14.2293L19.4134 14.1668L16.8843 12.1668C16.5021 11.8807 16.0332 11.7345 15.5561 11.7527C15.0791 11.7709 14.6227 11.9524 14.2634 12.2668L13.1718 13.3002C10.8968 12.7835 7.63011 9.83351 7.46761 7.65851L8.54678 6.52101C8.85609 6.15994 9.03261 5.70394 9.04701 5.22872C9.06141 4.75349 8.91283 4.28764 8.62594 3.90851L6.63428 1.38767C6.61349 1.35996 6.58813 1.33601 6.55928 1.31684C6.33923 1.14622 6.08722 1.02144 5.81813 0.949872C5.54905 0.878306 5.26834 0.861407 4.99261 0.900174C2.85928 1.25017 1.63428 2.42517 1.63428 4.16684C1.63428 8.14509 3.21463 11.9604 6.02768 14.7734C8.84072 17.5865 12.656 19.1668 16.6343 19.1668ZM5.12594 1.72934C5.18559 1.72521 5.24546 1.72521 5.30511 1.72934C5.56187 1.73031 5.81209 1.81033 6.02178 1.95851L7.96761 4.41684C8.13672 4.64172 8.22501 4.91707 8.21821 5.19836C8.2114 5.47964 8.1099 5.7504 7.93011 5.96684L6.74678 7.21684C6.67483 7.29368 6.63464 7.39491 6.63428 7.50017C6.63428 10.1835 10.5051 13.7085 13.2343 14.1668C13.2977 14.1773 13.3626 14.173 13.4241 14.1542C13.4855 14.1354 13.5418 14.1026 13.5884 14.0585L14.8384 12.8877C15.0533 12.7044 15.3239 12.5993 15.6061 12.5895C15.8883 12.5796 16.1655 12.6657 16.3926 12.8335L18.8718 14.7835C19.0587 15.0421 19.1365 15.3639 19.0884 15.6793C18.8843 16.8877 18.3009 18.3335 16.6343 18.3335C12.877 18.3335 9.2737 16.841 6.61693 14.1842C3.96017 11.5274 2.46761 7.92407 2.46761 4.16684C2.46761 2.50017 3.91344 1.91684 5.12594 1.72934Z" fill="#1E3301"/>
</svg>
