<svg width="56" height="56" viewBox="0 0 56 56" fill="none" xmlns="http://www.w3.org/2000/svg">
<path d="M38.8564 17.1426V10.857C38.8564 4.86085 33.9956 3.8147e-05 27.9995 3.8147e-05C22.0034 3.8147e-05 17.1426 4.86085 17.1426 10.857V17.1426L38.8564 17.1426Z" fill="#C6FEB3"/>
<path d="M38.8564 38.8564V45.142C38.8564 51.1382 33.9956 55.999 27.9995 55.999C22.0034 55.999 17.1426 51.1382 17.1426 45.142V38.8564H38.8564Z" fill="#42AF1D"/>
<path d="M17.1426 38.8564H10.857C4.86085 38.8564 3.8147e-05 33.9956 3.8147e-05 27.9995C3.8147e-05 22.0034 4.86085 17.1426 10.857 17.1426L17.1426 17.1426L17.1426 38.8564Z" fill="#42AF1D"/>
<path d="M38.8564 38.8564H45.142C51.1382 38.8564 55.999 33.9956 55.999 27.9995V27.328C55.999 21.7027 51.4388 17.1426 45.8136 17.1426L44.1911 17.1426C42.114 17.1426 40.1503 16.196 38.8564 14.5712L38.8564 38.8564Z" fill="#EDF9EA"/>
<path d="M17.1426 3.20904V17.1539C19.0949 30.4756 23.4282 37.9041 38.7916 38.8564H48.9515C40.666 33.666 39.029 27.3328 39.029 15.964V3.20904C39.029 1.68605 37.9371 -0.217682 34.8986 0.020286H20.9881C18.9467 0.0202864 17.1426 1.21012 17.1426 3.20904Z" fill="#EDF9EA"/>
<path d="M48.9515 38.8565C39.885 32.7614 39.0469 24.6663 39.0469 14.7617C40.1897 17.276 43.7452 17.3966 45.3801 17.1426H51.5228C52.9673 17.2379 55.8847 18.2664 55.9989 21.6187V34.4756C56.0307 35.4756 55.3418 37.7518 52.3323 38.8565H48.9515Z" fill="url(#paint0_linear_175_6707)"/>
<defs>
<linearGradient id="paint0_linear_175_6707" x1="60.4274" y1="20.2378" x2="42.4754" y2="33.809" gradientUnits="userSpaceOnUse">
<stop offset="0.261812" stop-color="#718C56" stop-opacity="0.02"/>
<stop offset="0.396907" stop-color="#568C5B" stop-opacity="0.05"/>
<stop offset="0.5509" stop-color="#568C5B" stop-opacity="0.1"/>
<stop offset="0.675497" stop-color="#568C58" stop-opacity="0.3"/>
<stop offset="0.842598" stop-color="#578C56" stop-opacity="0.5"/>
<stop offset="1" stop-color="#568C5B" stop-opacity="0.7"/>
</linearGradient>
</defs>
</svg>
