<svg width="311" height="56" viewBox="0 0 311 56" fill="none" xmlns="http://www.w3.org/2000/svg">
<path d="M38.8564 17.1431V10.8575C38.8564 4.86134 33.9956 0.000526428 27.9995 0.000526428C22.0034 0.000526428 17.1426 4.86134 17.1426 10.8575V17.1431L38.8564 17.1431Z" fill="#C6FEB3"/>
<path d="M38.8564 38.8569V45.1425C38.8564 51.1387 33.9956 55.9995 27.9995 55.9995C22.0034 55.9995 17.1426 51.1387 17.1426 45.1425V38.8569H38.8564Z" fill="#42AF1D"/>
<path d="M17.1426 38.8569H10.857C4.86085 38.8569 3.8147e-05 33.9961 3.8147e-05 28C3.8147e-05 22.0039 4.86085 17.143 10.857 17.143L17.1426 17.143L17.1426 38.8569Z" fill="#42AF1D"/>
<path d="M38.8564 38.8569H45.142C51.1382 38.8569 55.999 33.9961 55.999 28V27.3285C55.999 21.7032 51.4388 17.143 45.8136 17.143L44.1911 17.143C42.114 17.143 40.1503 16.1965 38.8564 14.5717L38.8564 38.8569Z" fill="#EDF9EA"/>
<path d="M17.1426 3.20953V17.1544C19.0949 30.4761 23.4282 37.9046 38.7916 38.8569H48.9515C40.666 33.6665 39.029 27.3333 39.029 15.9645V3.20953C39.029 1.68654 37.9371 -0.217194 34.8986 0.0207743H20.9881C18.9467 0.0207747 17.1426 1.21061 17.1426 3.20953Z" fill="#EDF9EA"/>
<path d="M48.9515 38.857C39.885 32.7619 39.0469 24.6668 39.0469 14.7622C40.1897 17.2764 43.7452 17.3971 45.3801 17.1431H51.5228C52.9673 17.2384 55.8847 18.2669 55.9989 21.6192V34.4761C56.0307 35.4761 55.3418 37.7523 52.3323 38.857H48.9515Z" fill="url(#paint0_linear_175_6281)"/>
<path d="M81.44 11.8H83.52V23H81.44V11.8ZM75.648 23H73.568V11.8H75.648V23ZM81.6 18.2H75.472V16.424H81.6V18.2ZM91.6218 23V21.272L91.5098 20.904V17.88C91.5098 17.2933 91.3338 16.84 90.9818 16.52C90.6298 16.1893 90.0964 16.024 89.3818 16.024C88.9018 16.024 88.4271 16.0987 87.9578 16.248C87.4991 16.3973 87.1098 16.6053 86.7898 16.872L86.0058 15.416C86.4644 15.064 87.0084 14.8027 87.6378 14.632C88.2778 14.4507 88.9391 14.36 89.6218 14.36C90.8591 14.36 91.8138 14.6587 92.4858 15.256C93.1684 15.8427 93.5098 16.7547 93.5098 17.992V23H91.6218ZM88.9338 23.112C88.2938 23.112 87.7338 23.0053 87.2538 22.792C86.7738 22.568 86.4004 22.264 86.1338 21.88C85.8778 21.4853 85.7498 21.0427 85.7498 20.552C85.7498 20.072 85.8618 19.64 86.0858 19.256C86.3204 18.872 86.6991 18.568 87.2218 18.344C87.7444 18.12 88.4378 18.008 89.3018 18.008H91.7818V19.336H89.4458C88.7631 19.336 88.3044 19.448 88.0698 19.672C87.8351 19.8853 87.7178 20.152 87.7178 20.472C87.7178 20.8347 87.8618 21.1227 88.1498 21.336C88.4378 21.5493 88.8378 21.656 89.3498 21.656C89.8404 21.656 90.2778 21.544 90.6618 21.32C91.0564 21.096 91.3391 20.7653 91.5098 20.328L91.8458 21.528C91.6538 22.0293 91.3071 22.4187 90.8058 22.696C90.3151 22.9733 89.6911 23.112 88.9338 23.112ZM100.721 23.112C100.027 23.112 99.3926 22.952 98.8166 22.632C98.2513 22.312 97.798 21.832 97.4566 21.192C97.126 20.5413 96.9606 19.72 96.9606 18.728C96.9606 17.7253 97.1206 16.904 97.4406 16.264C97.7713 15.624 98.2193 15.1493 98.7846 14.84C99.35 14.52 99.9953 14.36 100.721 14.36C101.563 14.36 102.305 14.5413 102.945 14.904C103.595 15.2667 104.107 15.7733 104.481 16.424C104.865 17.0747 105.057 17.8427 105.057 18.728C105.057 19.6133 104.865 20.3867 104.481 21.048C104.107 21.6987 103.595 22.2053 102.945 22.568C102.305 22.9307 101.563 23.112 100.721 23.112ZM95.9846 26.104V14.456H97.8886V16.472L97.8246 18.744L97.9846 21.016V26.104H95.9846ZM100.497 21.4C100.977 21.4 101.403 21.2933 101.777 21.08C102.161 20.8667 102.465 20.5573 102.689 20.152C102.913 19.7467 103.025 19.272 103.025 18.728C103.025 18.1733 102.913 17.6987 102.689 17.304C102.465 16.8987 102.161 16.5893 101.777 16.376C101.403 16.1627 100.977 16.056 100.497 16.056C100.017 16.056 99.5846 16.1627 99.2006 16.376C98.8166 16.5893 98.5126 16.8987 98.2886 17.304C98.0646 17.6987 97.9526 18.1733 97.9526 18.728C97.9526 19.272 98.0646 19.7467 98.2886 20.152C98.5126 20.5573 98.8166 20.8667 99.2006 21.08C99.5846 21.2933 100.017 21.4 100.497 21.4ZM113.175 23L110.087 18.904L111.719 17.896L115.527 23H113.175ZM107.047 23V14.456H109.047V23H107.047ZM108.455 19.576V17.912H111.351V19.576H108.455ZM111.911 18.968L110.039 18.744L113.175 14.456H115.319L111.911 18.968ZM120.465 23.112C119.59 23.112 118.811 22.9253 118.129 22.552C117.446 22.168 116.907 21.6453 116.513 20.984C116.118 20.3227 115.921 19.5707 115.921 18.728C115.921 17.8747 116.118 17.1227 116.513 16.472C116.907 15.8107 117.446 15.2933 118.129 14.92C118.811 14.5467 119.59 14.36 120.465 14.36C121.35 14.36 122.134 14.5467 122.817 14.92C123.51 15.2933 124.049 15.8053 124.433 16.456C124.827 17.1067 125.025 17.864 125.025 18.728C125.025 19.5707 124.827 20.3227 124.433 20.984C124.049 21.6453 123.51 22.168 122.817 22.552C122.134 22.9253 121.35 23.112 120.465 23.112ZM120.465 21.4C120.955 21.4 121.393 21.2933 121.777 21.08C122.161 20.8667 122.459 20.5573 122.673 20.152C122.897 19.7467 123.009 19.272 123.009 18.728C123.009 18.1733 122.897 17.6987 122.673 17.304C122.459 16.8987 122.161 16.5893 121.777 16.376C121.393 16.1627 120.961 16.056 120.481 16.056C119.99 16.056 119.553 16.1627 119.169 16.376C118.795 16.5893 118.497 16.8987 118.273 17.304C118.049 17.6987 117.937 18.1733 117.937 18.728C117.937 19.272 118.049 19.7467 118.273 20.152C118.497 20.5573 118.795 20.8667 119.169 21.08C119.553 21.2933 119.985 21.4 120.465 21.4ZM125.659 22.984L125.755 21.304C125.829 21.3147 125.899 21.3253 125.963 21.336C126.027 21.3467 126.085 21.352 126.139 21.352C126.469 21.352 126.725 21.2507 126.907 21.048C127.088 20.8453 127.221 20.5733 127.307 20.232C127.403 19.88 127.467 19.4907 127.499 19.064C127.541 18.6267 127.573 18.1893 127.595 17.752L127.739 14.456H134.651V23H132.651V15.608L133.115 16.152H129.051L129.483 15.592L129.371 17.848C129.339 18.6053 129.275 19.3093 129.179 19.96C129.093 20.6 128.955 21.16 128.763 21.64C128.581 22.12 128.325 22.4933 127.995 22.76C127.675 23.0267 127.264 23.16 126.763 23.16C126.603 23.16 126.427 23.144 126.235 23.112C126.053 23.08 125.861 23.0373 125.659 22.984ZM141.152 23.112C140.277 23.112 139.499 22.9253 138.816 22.552C138.133 22.168 137.595 21.6453 137.2 20.984C136.805 20.3227 136.608 19.5707 136.608 18.728C136.608 17.8747 136.805 17.1227 137.2 16.472C137.595 15.8107 138.133 15.2933 138.816 14.92C139.499 14.5467 140.277 14.36 141.152 14.36C142.037 14.36 142.821 14.5467 143.504 14.92C144.197 15.2933 144.736 15.8053 145.12 16.456C145.515 17.1067 145.712 17.864 145.712 18.728C145.712 19.5707 145.515 20.3227 145.12 20.984C144.736 21.6453 144.197 22.168 143.504 22.552C142.821 22.9253 142.037 23.112 141.152 23.112ZM141.152 21.4C141.643 21.4 142.08 21.2933 142.464 21.08C142.848 20.8667 143.147 20.5573 143.36 20.152C143.584 19.7467 143.696 19.272 143.696 18.728C143.696 18.1733 143.584 17.6987 143.36 17.304C143.147 16.8987 142.848 16.5893 142.464 16.376C142.08 16.1627 141.648 16.056 141.168 16.056C140.677 16.056 140.24 16.1627 139.856 16.376C139.483 16.5893 139.184 16.8987 138.96 17.304C138.736 17.6987 138.624 18.1733 138.624 18.728C138.624 19.272 138.736 19.7467 138.96 20.152C139.184 20.5573 139.483 20.8667 139.856 21.08C140.24 21.2933 140.672 21.4 141.152 21.4ZM147.688 23V14.456H154.248V16.152H149.224L149.688 15.704V23H147.688ZM155.703 23V14.456H157.703V20.088L162.423 14.456H164.247V23H162.247V17.368L157.543 23H155.703ZM172.33 19.624C171.924 19.816 171.492 19.976 171.034 20.104C170.586 20.2213 170.111 20.28 169.61 20.28C168.532 20.28 167.695 20.0293 167.098 19.528C166.5 19.0267 166.202 18.248 166.202 17.192V14.456H168.202V17.064C168.202 17.6293 168.362 18.04 168.682 18.296C169.012 18.552 169.466 18.68 170.042 18.68C170.426 18.68 170.81 18.632 171.194 18.536C171.578 18.44 171.956 18.3067 172.33 18.136V19.624ZM172.186 23V14.456H174.186V23H172.186ZM180.859 23.112C179.91 23.112 179.078 22.9253 178.363 22.552C177.659 22.168 177.11 21.6453 176.715 20.984C176.331 20.3227 176.139 19.5707 176.139 18.728C176.139 17.8747 176.326 17.1227 176.699 16.472C177.083 15.8107 177.606 15.2933 178.267 14.92C178.939 14.5467 179.702 14.36 180.555 14.36C181.387 14.36 182.129 14.5413 182.779 14.904C183.43 15.2667 183.942 15.7787 184.315 16.44C184.689 17.1013 184.875 17.88 184.875 18.776C184.875 18.8613 184.87 18.9573 184.859 19.064C184.859 19.1707 184.854 19.272 184.843 19.368H177.723V18.04H183.787L183.003 18.456C183.014 17.9653 182.913 17.5333 182.699 17.16C182.486 16.7867 182.193 16.4933 181.819 16.28C181.457 16.0667 181.035 15.96 180.555 15.96C180.065 15.96 179.633 16.0667 179.259 16.28C178.897 16.4933 178.609 16.792 178.395 17.176C178.193 17.5493 178.091 17.992 178.091 18.504V18.824C178.091 19.336 178.209 19.7893 178.443 20.184C178.678 20.5787 179.009 20.8827 179.435 21.096C179.862 21.3093 180.353 21.416 180.907 21.416C181.387 21.416 181.819 21.3413 182.203 21.192C182.587 21.0427 182.929 20.808 183.227 20.488L184.299 21.72C183.915 22.168 183.43 22.5147 182.843 22.76C182.267 22.9947 181.606 23.112 180.859 23.112ZM190.951 23.112C190.055 23.112 189.255 22.9253 188.551 22.552C187.857 22.168 187.313 21.6453 186.919 20.984C186.524 20.3227 186.327 19.5707 186.327 18.728C186.327 17.8747 186.524 17.1227 186.919 16.472C187.313 15.8107 187.857 15.2933 188.551 14.92C189.255 14.5467 190.055 14.36 190.951 14.36C191.783 14.36 192.513 14.5307 193.143 14.872C193.783 15.2027 194.268 15.6933 194.599 16.344L193.063 17.24C192.807 16.8347 192.492 16.536 192.119 16.344C191.756 16.152 191.361 16.056 190.935 16.056C190.444 16.056 190.001 16.1627 189.607 16.376C189.212 16.5893 188.903 16.8987 188.679 17.304C188.455 17.6987 188.343 18.1733 188.343 18.728C188.343 19.2827 188.455 19.7627 188.679 20.168C188.903 20.5627 189.212 20.8667 189.607 21.08C190.001 21.2933 190.444 21.4 190.935 21.4C191.361 21.4 191.756 21.304 192.119 21.112C192.492 20.92 192.807 20.6213 193.063 20.216L194.599 21.112C194.268 21.752 193.783 22.248 193.143 22.6C192.513 22.9413 191.783 23.112 190.951 23.112ZM202.488 23L199.4 18.904L201.032 17.896L204.84 23H202.488ZM196.36 23V14.456H198.36V23H196.36ZM197.768 19.576V17.912H200.664V19.576H197.768ZM201.224 18.968L199.352 18.744L202.488 14.456H204.632L201.224 18.968ZM211.278 23V21.272L211.166 20.904V17.88C211.166 17.2933 210.99 16.84 210.638 16.52C210.286 16.1893 209.753 16.024 209.038 16.024C208.558 16.024 208.083 16.0987 207.614 16.248C207.155 16.3973 206.766 16.6053 206.446 16.872L205.662 15.416C206.121 15.064 206.665 14.8027 207.294 14.632C207.934 14.4507 208.595 14.36 209.278 14.36C210.515 14.36 211.47 14.6587 212.142 15.256C212.825 15.8427 213.166 16.7547 213.166 17.992V23H211.278ZM208.59 23.112C207.95 23.112 207.39 23.0053 206.91 22.792C206.43 22.568 206.057 22.264 205.79 21.88C205.534 21.4853 205.406 21.0427 205.406 20.552C205.406 20.072 205.518 19.64 205.742 19.256C205.977 18.872 206.355 18.568 206.878 18.344C207.401 18.12 208.094 18.008 208.958 18.008H211.438V19.336H209.102C208.419 19.336 207.961 19.448 207.726 19.672C207.491 19.8853 207.374 20.152 207.374 20.472C207.374 20.8347 207.518 21.1227 207.806 21.336C208.094 21.5493 208.494 21.656 209.006 21.656C209.497 21.656 209.934 21.544 210.318 21.32C210.713 21.096 210.995 20.7653 211.166 20.328L211.502 21.528C211.31 22.0293 210.963 22.4187 210.462 22.696C209.971 22.9733 209.347 23.112 208.59 23.112ZM221.065 23V20.088L221.353 20.424H218.793C217.62 20.424 216.697 20.1787 216.025 19.688C215.364 19.1867 215.033 18.4667 215.033 17.528C215.033 16.5253 215.385 15.7627 216.089 15.24C216.804 14.7173 217.753 14.456 218.937 14.456H222.857V23H221.065ZM214.921 23L217.225 19.736H219.273L217.065 23H214.921ZM221.065 19.448V15.608L221.353 16.136H219.001C218.382 16.136 217.902 16.2533 217.561 16.488C217.23 16.712 217.065 17.08 217.065 17.592C217.065 18.552 217.689 19.032 218.937 19.032H221.353L221.065 19.448ZM236.097 23L233.009 18.904L234.641 17.896L238.449 23H236.097ZM229.969 23V14.456H231.969V23H229.969ZM231.377 19.576V17.912H234.273V19.576H231.377ZM234.833 18.968L232.961 18.744L236.097 14.456H238.241L234.833 18.968ZM238.612 22.984L238.708 21.304C238.782 21.3147 238.852 21.3253 238.916 21.336C238.98 21.3467 239.038 21.352 239.092 21.352C239.422 21.352 239.678 21.2507 239.86 21.048C240.041 20.8453 240.174 20.5733 240.26 20.232C240.356 19.88 240.42 19.4907 240.452 19.064C240.494 18.6267 240.526 18.1893 240.548 17.752L240.692 14.456H247.604V23H245.604V15.608L246.068 16.152H242.004L242.436 15.592L242.324 17.848C242.292 18.6053 242.228 19.3093 242.132 19.96C242.046 20.6 241.908 21.16 241.716 21.64C241.534 22.12 241.278 22.4933 240.948 22.76C240.628 23.0267 240.217 23.16 239.716 23.16C239.556 23.16 239.38 23.144 239.188 23.112C239.006 23.08 238.814 23.0373 238.612 22.984ZM250.297 23V14.456H252.297V20.088L257.017 14.456H258.841V23H256.841V17.368L252.137 23H250.297ZM261.532 23V14.456H263.532V17.928H267.836V14.456H269.836V23H267.836V19.624H263.532V23H261.532ZM272.516 23V14.456H274.516V20.088L279.236 14.456H281.06V23H279.06V17.368L274.356 23H272.516ZM289.878 23L286.79 18.904L288.422 17.896L292.23 23H289.878ZM283.75 23V14.456H285.75V23H283.75ZM285.158 19.576V17.912H288.054V19.576H285.158ZM288.614 18.968L286.742 18.744L289.878 14.456H292.022L288.614 18.968ZM298.669 23V21.272L298.557 20.904V17.88C298.557 17.2933 298.381 16.84 298.029 16.52C297.677 16.1893 297.143 16.024 296.429 16.024C295.949 16.024 295.474 16.0987 295.005 16.248C294.546 16.3973 294.157 16.6053 293.837 16.872L293.053 15.416C293.511 15.064 294.055 14.8027 294.685 14.632C295.325 14.4507 295.986 14.36 296.669 14.36C297.906 14.36 298.861 14.6587 299.533 15.256C300.215 15.8427 300.557 16.7547 300.557 17.992V23H298.669ZM295.981 23.112C295.341 23.112 294.781 23.0053 294.301 22.792C293.821 22.568 293.447 22.264 293.181 21.88C292.925 21.4853 292.797 21.0427 292.797 20.552C292.797 20.072 292.909 19.64 293.133 19.256C293.367 18.872 293.746 18.568 294.269 18.344C294.791 18.12 295.485 18.008 296.349 18.008H298.829V19.336H296.493C295.81 19.336 295.351 19.448 295.117 19.672C294.882 19.8853 294.765 20.152 294.765 20.472C294.765 20.8347 294.909 21.1227 295.197 21.336C295.485 21.5493 295.885 21.656 296.397 21.656C296.887 21.656 297.325 21.544 297.709 21.32C298.103 21.096 298.386 20.7653 298.557 20.328L298.893 21.528C298.701 22.0293 298.354 22.4187 297.853 22.696C297.362 22.9733 296.738 23.112 295.981 23.112ZM74.944 43.816L72.672 40.728L74.944 37.624H76.752L74.528 40.728L76.752 43.816H74.944ZM78.272 43.816L76 40.728L78.272 37.624H80.08L77.856 40.728L80.08 43.816H78.272ZM87.2505 45.16C86.3972 45.16 85.6025 45.0213 84.8665 44.744C84.1412 44.456 83.5065 44.056 82.9625 43.544C82.4292 43.0213 82.0132 42.408 81.7145 41.704C81.4158 41 81.2665 40.232 81.2665 39.4C81.2665 38.568 81.4158 37.8 81.7145 37.096C82.0132 36.392 82.4345 35.784 82.9785 35.272C83.5225 34.7493 84.1572 34.3493 84.8825 34.072C85.6078 33.784 86.4025 33.64 87.2665 33.64C88.1838 33.64 89.0212 33.8 89.7785 34.12C90.5358 34.4293 91.1758 34.8933 91.6985 35.512L90.3545 36.776C89.9492 36.3387 89.4958 36.0133 88.9945 35.8C88.4932 35.576 87.9492 35.464 87.3625 35.464C86.7758 35.464 86.2372 35.56 85.7465 35.752C85.2665 35.944 84.8452 36.216 84.4825 36.568C84.1305 36.92 83.8532 37.336 83.6505 37.816C83.4585 38.296 83.3625 38.824 83.3625 39.4C83.3625 39.976 83.4585 40.504 83.6505 40.984C83.8532 41.464 84.1305 41.88 84.4825 42.232C84.8452 42.584 85.2665 42.856 85.7465 43.048C86.2372 43.24 86.7758 43.336 87.3625 43.336C87.9492 43.336 88.4932 43.2293 88.9945 43.016C89.4958 42.792 89.9492 42.456 90.3545 42.008L91.6985 43.288C91.1758 43.896 90.5358 44.36 89.7785 44.68C89.0212 45 88.1785 45.16 87.2505 45.16ZM98.6374 45V43.272L98.5254 42.904V39.88C98.5254 39.2933 98.3494 38.84 97.9974 38.52C97.6454 38.1893 97.112 38.024 96.3974 38.024C95.9174 38.024 95.4427 38.0987 94.9734 38.248C94.5147 38.3973 94.1254 38.6053 93.8054 38.872L93.0214 37.416C93.48 37.064 94.024 36.8027 94.6534 36.632C95.2934 36.4507 95.9547 36.36 96.6374 36.36C97.8747 36.36 98.8294 36.6587 99.5014 37.256C100.184 37.8427 100.525 38.7547 100.525 39.992V45H98.6374ZM95.9494 45.112C95.3094 45.112 94.7494 45.0053 94.2694 44.792C93.7894 44.568 93.416 44.264 93.1494 43.88C92.8934 43.4853 92.7654 43.0427 92.7654 42.552C92.7654 42.072 92.8774 41.64 93.1014 41.256C93.336 40.872 93.7147 40.568 94.2374 40.344C94.76 40.12 95.4534 40.008 96.3174 40.008H98.7974V41.336H96.4614C95.7787 41.336 95.32 41.448 95.0854 41.672C94.8507 41.8853 94.7334 42.152 94.7334 42.472C94.7334 42.8347 94.8774 43.1227 95.1654 43.336C95.4534 43.5493 95.8534 43.656 96.3654 43.656C96.856 43.656 97.2934 43.544 97.6774 43.32C98.072 43.096 98.3547 42.7653 98.5254 42.328L98.8614 43.528C98.6694 44.0293 98.3227 44.4187 97.8214 44.696C97.3307 44.9733 96.7067 45.112 95.9494 45.112ZM104.776 45V37.672L105.24 38.152H101.768V36.456H109.768V38.152H106.312L106.776 37.672V45H104.776ZM116.403 45V43.272L116.291 42.904V39.88C116.291 39.2933 116.115 38.84 115.763 38.52C115.411 38.1893 114.878 38.024 114.163 38.024C113.683 38.024 113.208 38.0987 112.739 38.248C112.28 38.3973 111.891 38.6053 111.571 38.872L110.787 37.416C111.246 37.064 111.79 36.8027 112.419 36.632C113.059 36.4507 113.72 36.36 114.403 36.36C115.64 36.36 116.595 36.6587 117.267 37.256C117.95 37.8427 118.291 38.7547 118.291 39.992V45H116.403ZM113.715 45.112C113.075 45.112 112.515 45.0053 112.035 44.792C111.555 44.568 111.182 44.264 110.915 43.88C110.659 43.4853 110.531 43.0427 110.531 42.552C110.531 42.072 110.643 41.64 110.867 41.256C111.102 40.872 111.48 40.568 112.003 40.344C112.526 40.12 113.219 40.008 114.083 40.008H116.563V41.336H114.227C113.544 41.336 113.086 41.448 112.851 41.672C112.616 41.8853 112.499 42.152 112.499 42.472C112.499 42.8347 112.643 43.1227 112.931 43.336C113.219 43.5493 113.619 43.656 114.131 43.656C114.622 43.656 115.059 43.544 115.443 43.32C115.838 43.096 116.12 42.7653 116.291 42.328L116.627 43.528C116.435 44.0293 116.088 44.4187 115.587 44.696C115.096 44.9733 114.472 45.112 113.715 45.112ZM120.766 45V36.456H122.766V39.928H127.07V36.456H129.07V45H127.07V41.624H122.766V45H120.766ZM131.75 45V36.456H133.75V42.088L138.47 36.456H140.294V45H138.294V39.368L133.59 45H131.75ZM143.929 43.816H142.121L144.345 40.728L142.121 37.624H143.929L146.201 40.728L143.929 43.816ZM147.257 43.816H145.449L147.673 40.728L145.449 37.624H147.257L149.529 40.728L147.257 43.816ZM155.969 45V36.456H160.145C161.18 36.456 161.99 36.648 162.577 37.032C163.174 37.416 163.473 37.96 163.473 38.664C163.473 39.3573 163.196 39.9013 162.641 40.296C162.086 40.68 161.35 40.872 160.433 40.872L160.673 40.376C161.708 40.376 162.476 40.568 162.977 40.952C163.489 41.3253 163.745 41.8747 163.745 42.6C163.745 43.3573 163.462 43.9493 162.897 44.376C162.332 44.792 161.473 45 160.321 45H155.969ZM157.873 43.544H160.161C160.705 43.544 161.116 43.4587 161.393 43.288C161.67 43.1067 161.809 42.8347 161.809 42.472C161.809 42.088 161.681 41.8053 161.425 41.624C161.169 41.4427 160.769 41.352 160.225 41.352H157.873V43.544ZM157.873 40.024H159.969C160.481 40.024 160.865 39.9333 161.121 39.752C161.388 39.56 161.521 39.2933 161.521 38.952C161.521 38.6 161.388 38.3387 161.121 38.168C160.865 37.9973 160.481 37.912 159.969 37.912H157.873V40.024ZM170.537 45V33.8H172.233L177.145 41.976H176.233L181.065 33.8H182.761L182.793 45H180.809L180.793 36.888H181.209L177.113 43.72H176.185L172.025 36.888H172.505V45H170.537ZM189.511 45.112C188.637 45.112 187.858 44.9253 187.175 44.552C186.493 44.168 185.954 43.6453 185.559 42.984C185.165 42.3227 184.967 41.5707 184.967 40.728C184.967 39.8747 185.165 39.1227 185.559 38.472C185.954 37.8107 186.493 37.2933 187.175 36.92C187.858 36.5467 188.637 36.36 189.511 36.36C190.397 36.36 191.181 36.5467 191.863 36.92C192.557 37.2933 193.095 37.8053 193.479 38.456C193.874 39.1067 194.071 39.864 194.071 40.728C194.071 41.5707 193.874 42.3227 193.479 42.984C193.095 43.6453 192.557 44.168 191.863 44.552C191.181 44.9253 190.397 45.112 189.511 45.112ZM189.511 43.4C190.002 43.4 190.439 43.2933 190.823 43.08C191.207 42.8667 191.506 42.5573 191.719 42.152C191.943 41.7467 192.055 41.272 192.055 40.728C192.055 40.1733 191.943 39.6987 191.719 39.304C191.506 38.8987 191.207 38.5893 190.823 38.376C190.439 38.1627 190.007 38.056 189.527 38.056C189.037 38.056 188.599 38.1627 188.215 38.376C187.842 38.5893 187.543 38.8987 187.319 39.304C187.095 39.6987 186.983 40.1733 186.983 40.728C186.983 41.272 187.095 41.7467 187.319 42.152C187.543 42.5573 187.842 42.8667 188.215 43.08C188.599 43.2933 189.031 43.4 189.511 43.4ZM199.935 45.112C199.039 45.112 198.239 44.9253 197.535 44.552C196.842 44.168 196.298 43.6453 195.903 42.984C195.508 42.3227 195.311 41.5707 195.311 40.728C195.311 39.8747 195.508 39.1227 195.903 38.472C196.298 37.8107 196.842 37.2933 197.535 36.92C198.239 36.5467 199.039 36.36 199.935 36.36C200.767 36.36 201.498 36.5307 202.127 36.872C202.767 37.2027 203.252 37.6933 203.583 38.344L202.047 39.24C201.791 38.8347 201.476 38.536 201.103 38.344C200.74 38.152 200.346 38.056 199.919 38.056C199.428 38.056 198.986 38.1627 198.591 38.376C198.196 38.5893 197.887 38.8987 197.663 39.304C197.439 39.6987 197.327 40.1733 197.327 40.728C197.327 41.2827 197.439 41.7627 197.663 42.168C197.887 42.5627 198.196 42.8667 198.591 43.08C198.986 43.2933 199.428 43.4 199.919 43.4C200.346 43.4 200.74 43.304 201.103 43.112C201.476 42.92 201.791 42.6213 202.047 42.216L203.583 43.112C203.252 43.752 202.767 44.248 202.127 44.6C201.498 44.9413 200.767 45.112 199.935 45.112ZM211.472 45L208.384 40.904L210.016 39.896L213.824 45H211.472ZM205.344 45V36.456H207.344V45H205.344ZM206.752 41.576V39.912H209.648V41.576H206.752ZM210.208 40.968L208.336 40.744L211.472 36.456H213.616L210.208 40.968ZM215.235 45V36.456H219.411C220.445 36.456 221.256 36.648 221.843 37.032C222.44 37.416 222.739 37.96 222.739 38.664C222.739 39.3573 222.461 39.9013 221.907 40.296C221.352 40.68 220.616 40.872 219.699 40.872L219.939 40.376C220.973 40.376 221.741 40.568 222.243 40.952C222.755 41.3253 223.011 41.8747 223.011 42.6C223.011 43.3573 222.728 43.9493 222.163 44.376C221.597 44.792 220.739 45 219.587 45H215.235ZM217.139 43.544H219.427C219.971 43.544 220.381 43.4587 220.659 43.288C220.936 43.1067 221.075 42.8347 221.075 42.472C221.075 42.088 220.947 41.8053 220.691 41.624C220.435 41.4427 220.035 41.352 219.491 41.352H217.139V43.544ZM217.139 40.024H219.235C219.747 40.024 220.131 39.9333 220.387 39.752C220.653 39.56 220.787 39.2933 220.787 38.952C220.787 38.6 220.653 38.3387 220.387 38.168C220.131 37.9973 219.747 37.912 219.235 37.912H217.139V40.024ZM229.125 45.112C228.176 45.112 227.344 44.9253 226.629 44.552C225.925 44.168 225.376 43.6453 224.981 42.984C224.597 42.3227 224.405 41.5707 224.405 40.728C224.405 39.8747 224.592 39.1227 224.965 38.472C225.349 37.8107 225.872 37.2933 226.533 36.92C227.205 36.5467 227.968 36.36 228.821 36.36C229.653 36.36 230.394 36.5413 231.045 36.904C231.696 37.2667 232.208 37.7787 232.581 38.44C232.954 39.1013 233.141 39.88 233.141 40.776C233.141 40.8613 233.136 40.9573 233.125 41.064C233.125 41.1707 233.12 41.272 233.109 41.368H225.989V40.04H232.053L231.269 40.456C231.28 39.9653 231.178 39.5333 230.965 39.16C230.752 38.7867 230.458 38.4933 230.085 38.28C229.722 38.0667 229.301 37.96 228.821 37.96C228.33 37.96 227.898 38.0667 227.525 38.28C227.162 38.4933 226.874 38.792 226.661 39.176C226.458 39.5493 226.357 39.992 226.357 40.504V40.824C226.357 41.336 226.474 41.7893 226.709 42.184C226.944 42.5787 227.274 42.8827 227.701 43.096C228.128 43.3093 228.618 43.416 229.173 43.416C229.653 43.416 230.085 43.3413 230.469 43.192C230.853 43.0427 231.194 42.808 231.493 42.488L232.565 43.72C232.181 44.168 231.696 44.5147 231.109 44.76C230.533 44.9947 229.872 45.112 229.125 45.112Z" fill="#1E3301"/>
<defs>
<linearGradient id="paint0_linear_175_6281" x1="60.4274" y1="20.2383" x2="42.4754" y2="33.8095" gradientUnits="userSpaceOnUse">
<stop offset="0.261812" stop-color="#718C56" stop-opacity="0.02"/>
<stop offset="0.396907" stop-color="#568C5B" stop-opacity="0.05"/>
<stop offset="0.5509" stop-color="#568C5B" stop-opacity="0.1"/>
<stop offset="0.675497" stop-color="#568C58" stop-opacity="0.3"/>
<stop offset="0.842598" stop-color="#578C56" stop-opacity="0.5"/>
<stop offset="1" stop-color="#568C5B" stop-opacity="0.7"/>
</linearGradient>
</defs>
</svg>
