<svg width="65" height="64" viewBox="0 0 65 64" fill="none" xmlns="http://www.w3.org/2000/svg">
<path d="M12.973 51.7493C10.0539 51.8314 7.7028 54.2264 7.7028 57.1651V60.372H5.2323C4.71005 60.372 4.28655 60.7955 4.28655 61.3178C4.28655 61.84 4.71005 62.2635 5.2323 62.2635H57.1109C57.6332 62.2635 58.0567 61.84 58.0567 61.3178C58.0567 60.7955 57.6332 60.372 57.1109 60.372H54.6404V57.1651C54.6404 54.2264 52.2893 51.8314 49.3702 51.7493V28.1909C49.3702 18.156 41.2064 9.9923 31.1715 9.9923C21.1367 9.9923 12.9729 18.156 12.9729 28.1909V51.7493H12.973ZM14.8645 28.1909C14.8645 19.1992 22.18 11.8838 31.1717 11.8838C40.1633 11.8838 47.4788 19.1993 47.4788 28.1909V51.7414H34.6332V39.7102C35.4527 40.3477 36.4683 40.7429 37.5834 40.7429C40.2594 40.7429 42.4362 38.5662 42.4362 35.8905C42.4362 33.221 40.2594 31.0488 37.5834 31.0488C34.9139 31.0488 32.7417 33.221 32.7417 35.8905V51.7414H29.6017V35.8905C29.6017 33.221 27.4294 31.0488 24.7599 31.0488C22.0844 31.0488 19.9075 33.221 19.9075 35.8905C19.9075 38.566 22.0843 40.7429 24.7599 40.7429C25.8752 40.7429 26.8907 40.3477 27.7102 39.7102V51.7414H14.8645V28.1909ZM34.6332 35.8905C34.6332 34.2637 35.9567 32.9403 37.5834 32.9403C39.2163 32.9403 40.5448 34.2638 40.5448 35.8905C40.5448 37.5234 39.2163 38.8514 37.5834 38.8514C35.9565 38.8514 34.6332 37.5234 34.6332 35.8905ZM27.7102 35.8905C27.7102 37.5234 26.3867 38.8514 24.7599 38.8514C23.127 38.8514 21.799 37.5233 21.799 35.8905C21.799 34.2637 23.1272 32.9403 24.7599 32.9403C26.3868 32.9403 27.7102 34.2637 27.7102 35.8905ZM49.2169 53.6329C51.1647 53.6329 52.749 55.2173 52.749 57.1651V60.372H9.5943V57.1651C9.5943 55.2173 11.1787 53.6329 13.1264 53.6329H49.2169ZM31.1717 6.75617C30.6494 6.75617 30.2259 6.33267 30.2259 5.81042V2.6833C30.2259 2.16105 30.6494 1.73755 31.1717 1.73755C31.6939 1.73755 32.1174 2.16105 32.1174 2.6833V5.81042C32.1174 6.3328 31.6939 6.75617 31.1717 6.75617ZM18.6145 9.29967L17.051 6.5918C16.7902 6.13967 16.9448 5.56117 17.3974 5.2998C17.8485 5.03755 18.4277 5.19355 18.6894 5.64617L20.253 8.35405C20.5139 8.80617 20.3593 9.38467 19.9067 9.64605C19.4584 9.90492 18.878 9.75517 18.6145 9.29967ZM11.6603 17.7492C11.4005 18.1984 10.8238 18.3578 10.3683 18.0955L7.65992 16.5319C7.20742 16.2705 7.05267 15.6924 7.31355 15.2399C7.57492 14.7874 8.15117 14.6322 8.60555 14.8935L11.3139 16.4572C11.7664 16.7185 11.9212 17.2967 11.6603 17.7492ZM4.5688 27.9489H7.69592C8.21817 27.9489 8.64167 28.3724 8.64167 28.8947C8.64167 29.4169 8.21817 29.8404 7.69592 29.8404H4.5688C4.04655 29.8404 3.62305 29.4169 3.62305 28.8947C3.62305 28.3724 4.04655 27.9489 4.5688 27.9489ZM54.6474 27.9489H57.7745C58.2968 27.9489 58.7203 28.3724 58.7203 28.8947C58.7203 29.4169 58.2968 29.8404 57.7745 29.8404H54.6474C54.1252 29.8404 53.7017 29.4169 53.7017 28.8947C53.7017 28.3724 54.1252 27.9489 54.6474 27.9489ZM55.0298 15.0567C55.2907 15.5092 55.136 16.0873 54.6834 16.3487L51.975 17.9123C51.5203 18.1742 50.9432 18.0158 50.683 17.5659C50.4222 17.1134 50.5768 16.5353 51.0294 16.2739L53.7378 14.7103C54.1912 14.448 54.7674 14.6037 55.0298 15.0567ZM42.4367 9.3283C41.9842 9.06692 41.8294 8.4888 42.0903 8.0363L43.6539 5.32792C43.9148 4.87542 44.4912 4.72017 44.9459 4.98155C45.3984 5.24292 45.5532 5.82105 45.2923 6.27355L43.7287 8.98192C43.4689 9.43117 42.8923 9.59067 42.4367 9.3283Z" fill="#1E3301"/>
</svg>
