<svg width="65" height="64" viewBox="0 0 65 64" fill="none" xmlns="http://www.w3.org/2000/svg">
<path d="M29.8403 6H13.8403C13.5751 6 13.3208 6.10536 13.1332 6.29289C12.9457 6.48043 12.8403 6.73478 12.8403 7V15C12.8403 15.2652 12.9457 15.5196 13.1332 15.7071C13.3208 15.8946 13.5751 16 13.8403 16H29.8403C30.1055 16 30.3599 15.8946 30.5474 15.7071C30.735 15.5196 30.8403 15.2652 30.8403 15V7C30.8403 6.73478 30.735 6.48043 30.5474 6.29289C30.3599 6.10536 30.1055 6 29.8403 6ZM28.8403 14H14.8403V8H28.8403V14Z" fill="#1E3301"/>
<path d="M22.8403 32H12.8403C12.5751 32 12.3208 32.1054 12.1332 32.2929C11.9457 32.4804 11.8403 32.7348 11.8403 33C11.8403 33.2652 11.9457 33.5196 12.1332 33.7071C12.3208 33.8946 12.5751 34 12.8403 34H22.8403C23.1055 34 23.3599 33.8946 23.5474 33.7071C23.735 33.5196 23.8403 33.2652 23.8403 33C23.8403 32.7348 23.735 32.4804 23.5474 32.2929C23.3599 32.1054 23.1055 32 22.8403 32Z" fill="#1E3301"/>
<path d="M21.8403 36H11.8403C11.5751 36 11.3208 36.1054 11.1332 36.2929C10.9457 36.4804 10.8403 36.7348 10.8403 37C10.8403 37.2652 10.9457 37.5196 11.1332 37.7071C11.3208 37.8946 11.5751 38 11.8403 38H21.8403C22.1055 38 22.3599 37.8946 22.5474 37.7071C22.735 37.5196 22.8403 37.2652 22.8403 37C22.8403 36.7348 22.735 36.4804 22.5474 36.2929C22.3599 36.1054 22.1055 36 21.8403 36Z" fill="#1E3301"/>
<path d="M30.8403 34C31.1055 34 31.3599 33.8946 31.5474 33.7071C31.735 33.5196 31.8403 33.2652 31.8403 33C31.8403 32.7348 31.735 32.4804 31.5474 32.2929C31.3599 32.1054 31.1055 32 30.8403 32H26.8403C26.5751 32 26.3208 32.1054 26.1332 32.2929C25.9457 32.4804 25.8403 32.7348 25.8403 33C25.8403 33.2652 25.9457 33.5196 26.1332 33.7071C26.3208 33.8946 26.5751 34 26.8403 34H30.8403Z" fill="#1E3301"/>
<path d="M31.8403 36H27.8403C27.5751 36 27.3208 36.1054 27.1332 36.2929C26.9457 36.4804 26.8403 36.7348 26.8403 37C26.8403 37.2652 26.9457 37.5196 27.1332 37.7071C27.3208 37.8946 27.5751 38 27.8403 38H31.8403C32.1055 38 32.3599 37.8946 32.5474 37.7071C32.735 37.5196 32.8403 37.2652 32.8403 37C32.8403 36.7348 32.735 36.4804 32.5474 36.2929C32.3599 36.1054 32.1055 36 31.8403 36Z" fill="#1E3301"/>
<path d="M55.7345 11.5527C55.6039 11.2915 54.3286 9 49.8401 9C45.3516 9 44.0764 11.2915 43.9458 11.5527C43.8763 11.6916 43.8401 11.8447 43.8401 12V17.9298C43.8396 18.4237 43.9613 18.9101 44.1945 19.3456C44.4276 19.7812 44.7648 20.1522 45.1761 20.4258L46.8401 21.5351V27C46.8409 27.6201 47.0336 28.2248 47.3917 28.7312C47.7497 29.2375 48.2557 29.6206 48.8401 29.828V34C48.8395 34.5302 48.6286 35.0386 48.2537 35.4135C47.8787 35.7885 47.3704 35.9994 46.8401 36H43.8401C43.3099 35.9994 42.8015 35.7885 42.4266 35.4135C42.0517 35.0386 41.8408 34.5302 41.8401 34V33C41.8389 31.9395 41.4171 30.9228 40.6672 30.1729C39.9174 29.423 38.9006 29.0012 37.8401 29H35.2913L34.8176 26.79C34.7697 26.5663 34.6465 26.3659 34.4686 26.2221C34.2907 26.0783 34.0689 25.9999 33.8401 26H28.3539L27.8265 22.8356C27.7876 22.6021 27.6671 22.39 27.4865 22.237C27.3059 22.084 27.0768 22 26.8401 22H25.8401V20H33.8401C34.1053 20 34.3597 19.8946 34.5472 19.7071C34.7348 19.5196 34.8401 19.2652 34.8401 19V3C34.8401 2.73478 34.7348 2.48043 34.5472 2.29289C34.3597 2.10536 34.1053 2 33.8401 2H9.84013C9.57491 2 9.32056 2.10536 9.13302 2.29289C8.94549 2.48043 8.84013 2.73478 8.84013 3V19C8.84013 19.2652 8.94549 19.5196 9.13302 19.7071C9.32056 19.8946 9.57491 20 9.84013 20H17.8401V22H16.8401C16.6034 22 16.3744 22.084 16.1938 22.237C16.0131 22.39 15.8927 22.6021 15.8538 22.8356L15.3264 26H9.84013C9.61139 25.9999 9.38954 26.0783 9.21163 26.2221C9.03372 26.3659 8.91053 26.5663 8.86263 26.79L5.86263 40.79C5.83131 40.9358 5.833 41.0868 5.86758 41.2318C5.90215 41.3769 5.96874 41.5124 6.06245 41.6284C6.15617 41.7444 6.27464 41.838 6.4092 41.9023C6.54376 41.9666 6.691 42 6.84013 42H9.84013V50C9.04476 50.0009 8.28221 50.3172 7.7198 50.8797C7.15738 51.4421 6.84102 52.2046 6.84013 53V55C6.84025 55.1926 6.89601 55.3811 7.0007 55.5428C7.10539 55.7045 7.25455 55.8325 7.43026 55.9115C7.06075 56.514 6.85749 57.2036 6.84115 57.9102C6.82481 58.6168 6.99599 59.3151 7.33725 59.9341C7.67851 60.553 8.17767 61.0704 8.78392 61.4338C9.39017 61.7971 10.0819 61.9933 10.7886 62.0024C11.4953 62.0115 12.1918 61.8331 12.8072 61.4856C13.4226 61.138 13.9349 60.6336 14.292 60.0236C14.6491 59.4137 14.8382 58.72 14.8401 58.0132C14.8419 57.3065 14.6565 56.6118 14.3026 56H29.3789C29.0249 56.6118 28.8394 57.3065 28.8411 58.0133C28.8429 58.7201 29.032 59.4139 29.389 60.0239C29.7461 60.6339 30.2584 61.1384 30.8739 61.486C31.4893 61.8336 32.1859 62.012 32.8926 62.0029C33.5994 61.9938 34.2911 61.7976 34.8974 61.4342C35.5037 61.0708 36.0029 60.5533 36.3441 59.9343C36.6853 59.3153 36.8565 58.6169 36.84 57.9103C36.8236 57.2037 36.6203 56.514 36.2506 55.9115C36.4262 55.8325 36.5753 55.7044 36.6798 55.5427C36.7844 55.381 36.8401 55.1926 36.8401 55V53C36.8392 52.2046 36.5229 51.4421 35.9605 50.8797C35.398 50.3172 34.6355 50.0009 33.8401 50V42H36.8401C36.9893 42 37.1365 41.9666 37.2711 41.9023C37.4056 41.838 37.5241 41.7444 37.6178 41.6284C37.7115 41.5124 37.7781 41.3769 37.8127 41.2318C37.8473 41.0868 37.8489 40.9358 37.8176 40.79L35.7198 31H37.8401C38.3704 31.0006 38.8787 31.2115 39.2537 31.5865C39.6286 31.9614 39.8395 32.4698 39.8401 33V34C39.8413 35.0605 40.2631 36.0772 41.013 36.8271C41.7629 37.577 42.7796 37.9988 43.8401 38H46.8401C47.9006 37.9988 48.9174 37.577 49.6672 36.8271C50.4171 36.0772 50.8389 35.0605 50.8401 34V29.828C51.4246 29.6206 51.9305 29.2375 52.2886 28.7312C52.6467 28.2248 52.8393 27.6201 52.8401 27V21.5351L54.5043 20.4258C54.9155 20.1522 55.2527 19.7811 55.4858 19.3456C55.7189 18.9101 55.8406 18.4237 55.8401 17.9298V12C55.8401 11.8447 55.804 11.6916 55.7345 11.5527ZM10.8401 4H32.8401V18H10.8401V4ZM19.8401 20H23.8401V22H19.8401V20ZM17.6873 24H25.993L26.6596 28H17.0206L17.6873 24ZM12.8401 58C12.8401 58.3956 12.7228 58.7822 12.5031 59.1111C12.2833 59.44 11.9709 59.6964 11.6055 59.8478C11.24 59.9991 10.8379 60.0387 10.45 59.9616C10.062 59.8844 9.70562 59.6939 9.42592 59.4142C9.14621 59.1345 8.95573 58.7781 8.87856 58.3902C8.80139 58.0022 8.841 57.6001 8.99237 57.2346C9.14375 56.8692 9.40009 56.5568 9.72899 56.3371C10.0579 56.1173 10.4446 56 10.8401 56C11.3704 56.0006 11.8787 56.2115 12.2536 56.5865C12.6286 56.9614 12.8395 57.4698 12.8401 58ZM32.8401 60C32.4446 60 32.0579 59.8827 31.729 59.6629C31.4001 59.4432 31.1437 59.1308 30.9924 58.7654C30.841 58.3999 30.8014 57.9978 30.8786 57.6098C30.9557 57.2219 31.1462 56.8655 31.4259 56.5858C31.7056 56.3061 32.062 56.1156 32.4499 56.0384C32.8379 55.9613 33.24 56.0009 33.6055 56.1522C33.9709 56.3036 34.2833 56.56 34.5031 56.8889C34.7228 57.2178 34.8401 57.6044 34.8401 58C34.8395 58.5302 34.6286 59.0386 34.2537 59.4135C33.8787 59.7885 33.3704 59.9994 32.8401 60ZM34.8401 53V54H8.84013V53C8.84043 52.7349 8.94588 52.4807 9.13335 52.2932C9.32082 52.1057 9.57501 52.0003 9.84013 52H33.8401C34.1053 52.0003 34.3594 52.1057 34.5469 52.2932C34.7344 52.4807 34.8398 52.7349 34.8401 53ZM17.8401 50H15.8401V46H17.8401V50ZM27.8401 50H25.8401V46H27.8401V50ZM31.8401 50H29.8401V45C29.8401 44.7348 29.7348 44.4804 29.5472 44.2929C29.3597 44.1054 29.1053 44 28.8401 44H24.8401C24.5749 44 24.3206 44.1054 24.133 44.2929C23.9455 44.4804 23.8401 44.7348 23.8401 45V50H19.8401V45C19.8401 44.7348 19.7348 44.4804 19.5472 44.2929C19.3597 44.1054 19.1053 44 18.8401 44H14.8401C14.5749 44 14.3206 44.1054 14.133 44.2929C13.9455 44.4804 13.8401 44.7348 13.8401 45V50H11.8401V42H31.8401V50ZM8.07763 40L10.6489 28H14.993L14.8538 28.8356C14.8299 28.9789 14.8375 29.1256 14.8761 29.2656C14.9147 29.4056 14.9833 29.5356 15.0771 29.6464C15.171 29.7572 15.2879 29.8462 15.4197 29.9073C15.5514 29.9684 15.6949 30 15.8401 30H27.8401C27.9854 30 28.1288 29.9684 28.2606 29.9073C28.3924 29.8462 28.5093 29.7572 28.6031 29.6464C28.697 29.5356 28.7656 29.4056 28.8042 29.2656C28.8428 29.1256 28.8504 28.9789 28.8265 28.8356L28.6873 28H33.0314L35.6026 40H8.07763ZM49.8401 11C52.4651 11 53.5171 11.926 53.8401 12.3095V14.065C52.6225 13.3672 51.2435 13 49.8401 13C48.4367 13 47.0577 13.3672 45.8401 14.065V12.3095C46.1631 11.926 47.2151 11 49.8401 11ZM53.3949 18.7617L51.2854 20.168C51.1484 20.2593 51.0361 20.383 50.9584 20.5282C50.8808 20.6733 50.8401 20.8354 50.8401 21V27C50.8401 27.2652 50.7348 27.5196 50.5472 27.7071C50.3597 27.8946 50.1053 28 49.8401 28C49.5749 28 49.3206 27.8946 49.133 27.7071C48.9455 27.5196 48.8401 27.2652 48.8401 27V21C48.8401 20.8354 48.7995 20.6733 48.7218 20.5282C48.6441 20.383 48.5318 20.2593 48.3949 20.168L46.2855 18.7617C46.1484 18.6706 46.036 18.5469 45.9583 18.4017C45.8806 18.2565 45.84 18.0944 45.8401 17.9298V16.4574C46.4416 15.9824 47.9158 15 49.8401 15C51.7645 15 53.2386 15.9817 53.8401 16.4574V17.9298C53.8403 18.0944 53.7997 18.2565 53.722 18.4017C53.6443 18.5468 53.5319 18.6705 53.3949 18.7617Z" fill="#1E3301"/>
</svg>
