<svg width="64" height="64" viewBox="0 0 64 64" fill="none" xmlns="http://www.w3.org/2000/svg">
<g clip-path="url(#clip0_41_350)">
<path d="M42.2424 42.6625C38.2887 42.6625 34.8877 45.066 33.4183 48.4875C31.5372 47.8276 29.4812 47.8276 27.6 48.4875C26.1307 45.066 22.7295 42.6625 18.7758 42.6625C13.482 42.6625 9.17578 46.9692 9.17578 52.2625C9.17578 57.5557 13.482 61.8625 18.7758 61.8625C24.0695 61.8625 28.3758 57.5557 28.3758 52.2625C28.3758 51.6702 28.3142 51.0929 28.2109 50.53C29.6813 49.9969 31.3369 49.9969 32.8073 50.53C32.704 51.093 32.6424 51.6702 32.6424 52.2625C32.6424 57.5557 36.9487 61.8625 42.2424 61.8625C47.5362 61.8625 51.8424 57.5557 51.8424 52.2625C51.8424 46.9692 47.5362 42.6625 42.2424 42.6625ZM18.7757 59.7291C14.659 59.7291 11.309 56.3796 11.309 52.2625C11.309 48.1452 14.659 44.7958 18.7757 44.7958C22.8923 44.7958 26.2423 48.1453 26.2423 52.2625C26.2424 56.3797 22.8924 59.7291 18.7757 59.7291ZM42.2424 59.7291C38.1258 59.7291 34.7758 56.3796 34.7758 52.2625C34.7758 48.1452 38.1258 44.7958 42.2424 44.7958C46.359 44.7958 49.709 48.1453 49.709 52.2625C49.709 56.3797 46.359 59.7291 42.2424 59.7291Z" fill="#1E3301"/>
<path d="M61.4402 33.0667H57.0323L53.9433 11.4422C53.2715 6.7432 49.185 3.19995 44.4392 3.19995H36.9068C34.1893 3.19995 31.8131 4.66433 30.5068 6.8407C29.2006 4.66433 26.8243 3.19995 24.1068 3.19995H16.5746C11.8287 3.19995 7.74234 6.7432 7.07046 11.4422L3.98134 33.0667H-0.426539C-1.01616 33.0667 -1.49316 33.5443 -1.49316 34.1333V36.2698C-1.49316 38.6225 0.420336 40.5365 2.77346 40.5365H58.2401C60.5932 40.5365 62.5067 38.6225 62.5067 36.2698V34.1333C62.5068 33.5443 62.0297 33.0667 61.4402 33.0667ZM9.18283 11.7443C9.70471 8.0897 12.8828 5.33345 16.5745 5.33345H24.1068C27.0475 5.33345 29.4402 7.7262 29.4402 10.6668V11.7335C29.4402 12.3226 29.9173 12.8001 30.5068 12.8001C31.0965 12.8001 31.5735 12.3225 31.5735 11.7335V10.6668C31.5735 7.7262 33.9662 5.33345 36.9068 5.33345H44.4391C48.1307 5.33345 51.3088 8.0897 51.8307 11.7443L54.8766 33.0667H6.13709L9.18283 11.7443ZM60.3735 36.2698C60.3735 37.4465 59.4162 38.4032 58.2401 38.4032H2.77346C1.59746 38.4032 0.640086 37.4465 0.640086 36.2698V35.2001H60.3735V36.2698Z" fill="#1E3301"/>
</g>
<defs>
<clipPath id="clip0_41_350">
<rect width="64" height="64" fill="white"/>
</clipPath>
</defs>
</svg>
