<svg width="21" height="20" viewBox="0 0 21 20" fill="none" xmlns="http://www.w3.org/2000/svg">
<path d="M17.7078 16.4521L14.4525 13.1968C15.4517 12.0575 16.0029 10.6159 16.0029 9.08643C16.0029 7.41691 15.3527 5.84749 14.1723 4.66707C12.9919 3.48665 11.4224 2.83643 9.75293 2.83643C8.08342 2.83643 6.514 3.48665 5.33358 4.66707C4.15316 5.84749 3.50293 7.41691 3.50293 9.08643C3.50293 10.7559 4.15316 12.3254 5.33358 13.5058C6.514 14.6862 8.08342 15.3364 9.75293 15.3364C11.2824 15.3364 12.724 14.7852 13.8633 13.786L17.1187 17.0413C17.2 17.1227 17.3066 17.1634 17.4132 17.1634C17.5199 17.1634 17.6265 17.1227 17.7078 17.0413C17.8706 16.8786 17.8706 16.6149 17.7078 16.4521ZM5.92277 12.9166C4.89982 11.8934 4.33626 10.5332 4.33626 9.08643C4.33626 7.63969 4.89982 6.27942 5.92277 5.25627C6.94592 4.23332 8.30619 3.66976 9.75293 3.66976C11.1997 3.66976 12.5599 4.23332 13.5831 5.25627C14.606 6.27942 15.1696 7.63969 15.1696 9.08643C15.1696 10.5332 14.606 11.8934 13.5831 12.9166C12.5599 13.9395 11.1997 14.5031 9.75293 14.5031C8.30619 14.5031 6.94592 13.9395 5.92277 12.9166Z" fill="#1E3301"/>
</svg>
