<svg width="32" height="32" viewBox="0 0 32 32" fill="none" xmlns="http://www.w3.org/2000/svg">
<path d="M25.1624 10.258L26.7224 8.70805C26.8156 8.61481 26.8896 8.50412 26.94 8.3823C26.9905 8.26047 27.0165 8.12991 27.0165 7.99805C27.0165 7.86619 26.9905 7.73562 26.94 7.6138C26.8896 7.49198 26.8156 7.38129 26.7224 7.28805C26.6291 7.19481 26.5184 7.12085 26.3966 7.07039C26.2748 7.01993 26.1442 6.99396 26.0124 6.99396C25.8805 6.99396 25.7499 7.01993 25.6281 7.07039C25.5063 7.12085 25.3956 7.19481 25.3024 7.28805L23.7524 8.84805C21.8544 7.23179 19.4969 6.25238 17.0124 6.04805V3.99805H19.0124C19.2776 3.99805 19.5319 3.89269 19.7195 3.70515C19.907 3.51762 20.0124 3.26326 20.0124 2.99805C20.0124 2.73283 19.907 2.47848 19.7195 2.29094C19.5319 2.1034 19.2776 1.99805 19.0124 1.99805H13.0124C12.7471 1.99805 12.4928 2.1034 12.3053 2.29094C12.1177 2.47848 12.0124 2.73283 12.0124 2.99805C12.0124 3.26326 12.1177 3.51762 12.3053 3.70515C12.4928 3.89269 12.7471 3.99805 13.0124 3.99805H15.0124V6.04805C12.3305 6.26953 9.80097 7.38598 7.83001 9.21809C5.85904 11.0502 4.56108 13.4916 4.14461 16.1501C3.72813 18.8087 4.21733 21.53 5.5336 23.8771C6.84988 26.2242 8.91684 28.0607 11.4025 29.0917C13.8881 30.1227 16.6481 30.2883 19.2392 29.5619C21.8303 28.8355 24.102 27.2593 25.6895 25.0865C27.277 22.9136 28.088 20.2703 27.9924 17.581C27.8968 14.8918 26.9001 12.3127 25.1624 10.258ZM16.0124 27.998C14.0346 27.998 12.1012 27.4116 10.4567 26.3127C8.81217 25.2139 7.53044 23.6521 6.77357 21.8249C6.01669 19.9976 5.81866 17.987 6.20451 16.0471C6.59036 14.1073 7.54277 12.3255 8.9413 10.927C10.3398 9.52845 12.1217 8.57605 14.0615 8.19019C16.0013 7.80434 18.0119 8.00238 19.8392 8.75925C21.6665 9.51613 23.2282 10.7979 24.3271 12.4423C25.4259 14.0868 26.0124 16.0202 26.0124 17.998C26.0124 19.3113 25.7537 20.6116 25.2512 21.8249C24.7486 23.0381 24.012 24.1405 23.0834 25.0691C22.1548 25.9977 21.0525 26.7343 19.8392 27.2368C18.6259 27.7394 17.3256 27.998 16.0124 27.998Z" fill="#1E3301"/>
<path d="M17.0125 17.588V11.998C17.0125 11.7328 16.9071 11.4785 16.7196 11.2909C16.532 11.1034 16.2777 10.998 16.0125 10.998C15.7473 10.998 15.4929 11.1034 15.3054 11.2909C15.1178 11.4785 15.0125 11.7328 15.0125 11.998V17.998C15.0117 18.1297 15.0369 18.2601 15.0867 18.382C15.1365 18.5038 15.2098 18.6146 15.3025 18.708L18.3025 21.708C18.3954 21.8018 18.506 21.8762 18.6279 21.9269C18.7498 21.9777 18.8805 22.0038 19.0125 22.0038C19.1445 22.0038 19.2752 21.9777 19.397 21.9269C19.5189 21.8762 19.6295 21.8018 19.7225 21.708C19.8162 21.6151 19.8906 21.5045 19.9414 21.3826C19.9921 21.2608 20.0183 21.1301 20.0183 20.998C20.0183 20.866 19.9921 20.7353 19.9414 20.6135C19.8906 20.4916 19.8162 20.381 19.7225 20.288L17.0125 17.588Z" fill="#1E3301"/>
</svg>
