<svg width="32" height="32" viewBox="0 0 32 32" fill="none" xmlns="http://www.w3.org/2000/svg">
<g clip-path="url(#clip0_70_3128)">
<path d="M31.7966 15.3757C31.5107 14.9846 24.6992 5.80029 15.9998 5.80029C7.30037 5.80029 0.488625 14.9846 0.203062 15.3753C-0.0676875 15.7463 -0.0676875 16.2495 0.203062 16.6205C0.488625 17.0115 7.30037 26.1959 15.9998 26.1959C24.6992 26.1959 31.5107 17.0115 31.7966 16.6208C32.0677 16.2499 32.0677 15.7463 31.7966 15.3757ZM15.9998 24.086C9.59175 24.086 4.04169 17.9902 2.39875 15.9974C4.03956 14.0028 9.578 7.91017 15.9998 7.91017C22.4076 7.91017 27.9573 14.0049 29.6009 15.9988C27.9601 17.9933 22.4216 24.086 15.9998 24.086Z" fill="#1E3301"/>
<path d="M15.9999 9.66846C12.5097 9.66846 9.67017 12.508 9.67017 15.9981C9.67017 19.4883 12.5097 22.3278 15.9999 22.3278C19.49 22.3278 22.3295 19.4883 22.3295 15.9981C22.3295 12.508 19.49 9.66846 15.9999 9.66846ZM15.9999 20.2179C13.673 20.2179 11.7801 18.325 11.7801 15.9981C11.7801 13.6713 13.673 11.7784 15.9999 11.7784C18.3267 11.7784 20.2196 13.6713 20.2196 15.9981C20.2196 18.325 18.3267 20.2179 15.9999 20.2179Z" fill="#1E3301"/>
</g>
<defs>
<clipPath id="clip0_70_3128">
<rect width="32" height="32" fill="white"/>
</clipPath>
</defs>
</svg>
