<svg width="32" height="32" viewBox="0 0 32 32" fill="none" xmlns="http://www.w3.org/2000/svg">
<g clip-path="url(#clip0_70_3138)">
<g clip-path="url(#clip1_70_3138)">
<path d="M28.3333 31.998H3.66675C1.64404 31.998 0 30.354 0 28.3313V6.3313C0 4.30859 1.64404 2.66479 3.66675 2.66479H28.3333C30.356 2.66479 32 4.30859 32 6.3313V28.3313C32 30.354 30.356 31.998 28.3333 31.998ZM3.66675 4.66479C2.74805 4.66479 2 5.4126 2 6.3313V28.3313C2 29.25 2.74805 29.998 3.66675 29.998H28.3333C29.252 29.998 30 29.25 30 28.3313V6.3313C30 5.4126 29.252 4.66479 28.3333 4.66479H3.66675Z" fill="#1E3301"/>
<path d="M31 12.6648H1C0.447998 12.6648 0 12.2168 0 11.6648C0 11.1128 0.447998 10.6648 1 10.6648H31C31.552 10.6648 32 11.1128 32 11.6648C32 12.2168 31.552 12.6648 31 12.6648Z" fill="#1E3301"/>
<path d="M7.66675 7.99805C7.11475 7.99805 6.66675 7.55005 6.66675 6.99805V0.998047C6.66675 0.446045 7.11475 -0.00195312 7.66675 -0.00195312C8.21875 -0.00195312 8.66675 0.446045 8.66675 0.998047V6.99805C8.66675 7.55005 8.21875 7.99805 7.66675 7.99805Z" fill="#1E3301"/>
<path d="M24.3333 7.99805C23.7812 7.99805 23.3333 7.55005 23.3333 6.99805V0.998047C23.3333 0.446045 23.7812 -0.00195312 24.3333 -0.00195312C24.8853 -0.00195312 25.3333 0.446045 25.3333 0.998047V6.99805C25.3333 7.55005 24.8853 7.99805 24.3333 7.99805Z" fill="#1E3301"/>
</g>
</g>
<defs>
<clipPath id="clip0_70_3138">
<rect width="32" height="32" fill="white"/>
</clipPath>
<clipPath id="clip1_70_3138">
<rect width="32" height="32" fill="white" transform="translate(0 -0.00195312)"/>
</clipPath>
</defs>
</svg>
