<svg width="32" height="33" viewBox="0 0 32 33" fill="none" xmlns="http://www.w3.org/2000/svg">
<g clip-path="url(#clip0_70_3200)">
<g clip-path="url(#clip1_70_3200)">
<path d="M31.8745 27.0774L16.812 0.968994C16.6445 0.678711 16.335 0.5 16 0.5C15.665 0.5 15.3555 0.678711 15.188 0.968994L0.125488 27.0774C-0.0419921 27.3674 -0.041748 27.7246 0.125733 28.0146C0.293213 28.3047 0.602539 28.4834 0.9375 28.4834H31.0625C31.3972 28.4834 31.7068 28.3047 31.8743 28.0146C32.0417 27.7246 32.042 27.3674 31.8745 27.0774ZM2.56079 26.6084L16 3.31348L29.4395 26.6084H2.56079Z" fill="#FF1001"/>
<path d="M16.9375 22.5249C16.9375 23.0427 16.5178 23.4624 16 23.4624C15.4822 23.4624 15.0625 23.0427 15.0625 22.5249C15.0625 22.0071 15.4822 21.5874 16 21.5874C16.5178 21.5874 16.9375 22.0071 16.9375 22.5249Z" fill="#FF1001"/>
<path d="M15.0625 12.4834V18.5083C15.0625 19.0261 15.4822 19.4458 16 19.4458C16.5178 19.4458 16.9375 19.0261 16.9375 18.5083V12.4834C16.9375 11.9656 16.5178 11.5459 16 11.5459C15.4822 11.5459 15.0625 11.9656 15.0625 12.4834Z" fill="#FF1001"/>
</g>
</g>
<defs>
<clipPath id="clip0_70_3200">
<rect width="32" height="32" fill="white" transform="translate(0 0.5)"/>
</clipPath>
<clipPath id="clip1_70_3200">
<rect width="32" height="32" fill="white" transform="translate(0 0.5)"/>
</clipPath>
</defs>
</svg>
