<svg width="28" height="28" viewBox="0 0 28 28" fill="none" xmlns="http://www.w3.org/2000/svg">
<path d="M26.9875 14.3473L27.3337 14.0007L26.9875 13.6554C26.9875 13.6554 26.9875 13.6554 26.9875 13.6546L14.245 0.911627C14.054 0.720701 13.7431 0.720701 13.5522 0.911627C13.3612 1.10255 13.3612 1.41349 13.5522 1.60441L25.458 13.5102H1.1571C0.886452 13.5102 0.666992 13.7305 0.666992 14.0003C0.666992 14.2714 0.886452 14.4904 1.1571 14.4904H25.458L13.553 26.3958C13.3621 26.5863 13.3621 26.8973 13.553 27.0886C13.6491 27.1847 13.7746 27.2313 13.9 27.2313C14.0255 27.2313 14.151 27.1834 14.2471 27.0886L26.9875 14.3473C26.9875 14.3478 26.9875 14.3478 26.9875 14.3473Z" fill="#1A5906"/>
<path d="M26.9875 14.3473L27.3337 14.0007L26.9875 13.6554C26.9875 13.6554 26.9875 13.6554 26.9875 13.6546L14.245 0.911627C14.054 0.720701 13.7431 0.720701 13.5522 0.911627C13.3612 1.10255 13.3612 1.41349 13.5522 1.60441L25.458 13.5102H1.1571C0.886452 13.5102 0.666992 13.7305 0.666992 14.0003C0.666992 14.2714 0.886452 14.4904 1.1571 14.4904H25.458L13.553 26.3958C13.3621 26.5863 13.3621 26.8973 13.553 27.0886C13.6491 27.1847 13.7746 27.2313 13.9 27.2313C14.0255 27.2313 14.151 27.1834 14.2471 27.0886L26.9875 14.3473ZM26.9875 14.3473C26.9875 14.3478 26.9875 14.3478 26.9875 14.3473Z" stroke="#1A5906" stroke-width="0.4"/>
</svg>
