<svg width="22" height="23" viewBox="0 0 22 23" fill="none" xmlns="http://www.w3.org/2000/svg">
<path d="M21.3896 11.778L21.6666 11.5007L21.3896 11.2244C21.3896 11.2244 21.3896 11.2244 21.3896 11.2237L11.1956 1.02938C11.0429 0.87664 10.7941 0.87664 10.6414 1.02938C10.4887 1.18212 10.4887 1.43087 10.6414 1.58361L20.166 11.1082H0.725342C0.50882 11.1082 0.333252 11.2845 0.333252 11.5003C0.333252 11.7172 0.50882 11.8924 0.725342 11.8924H20.166L10.6421 21.4167C10.4893 21.5691 10.4893 21.8179 10.6421 21.971C10.7189 22.0478 10.8193 22.0851 10.9197 22.0851C11.0201 22.0851 11.1204 22.0468 11.1973 21.971L21.3896 11.778C21.3896 11.7783 21.3896 11.7783 21.3896 11.778Z" fill="#1E3301"/>
<path d="M21.3896 11.778L21.6666 11.5007L21.3896 11.2244C21.3896 11.2244 21.3896 11.2244 21.3896 11.2237L11.1956 1.02938C11.0429 0.87664 10.7941 0.87664 10.6414 1.02938C10.4887 1.18212 10.4887 1.43087 10.6414 1.58361L20.166 11.1082H0.725342C0.50882 11.1082 0.333252 11.2845 0.333252 11.5003C0.333252 11.7172 0.50882 11.8924 0.725342 11.8924H20.166L10.6421 21.4167C10.4893 21.5691 10.4893 21.8179 10.6421 21.971C10.7189 22.0478 10.8193 22.0851 10.9197 22.0851C11.0201 22.0851 11.1204 22.0468 11.1973 21.971L21.3896 11.778ZM21.3896 11.778C21.3896 11.7783 21.3896 11.7783 21.3896 11.778Z" stroke="#1E3301" stroke-width="0.4"/>
</svg>
