<svg width="28" height="28" viewBox="0 0 28 28" fill="none" xmlns="http://www.w3.org/2000/svg">
<path d="M26.987 14.3473L27.3332 14.0007L26.987 13.6554C26.987 13.6554 26.987 13.6554 26.987 13.6546L14.2445 0.911627C14.0535 0.720701 13.7426 0.720701 13.5517 0.911627C13.3608 1.10255 13.3608 1.41349 13.5517 1.60441L25.4575 13.5102H1.15662C0.885964 13.5102 0.666504 13.7305 0.666504 14.0003C0.666504 14.2714 0.885964 14.4904 1.15662 14.4904H25.4575L13.5525 26.3958C13.3616 26.5863 13.3616 26.8973 13.5525 27.0886C13.6486 27.1847 13.7741 27.2313 13.8995 27.2313C14.025 27.2313 14.1505 27.1834 14.2466 27.0886L26.987 14.3473C26.987 14.3478 26.987 14.3478 26.987 14.3473Z" fill="#1E3301"/>
<path d="M26.987 14.3473L27.3332 14.0007L26.987 13.6554C26.987 13.6554 26.987 13.6554 26.987 13.6546L14.2445 0.911627C14.0535 0.720701 13.7426 0.720701 13.5517 0.911627C13.3608 1.10255 13.3608 1.41349 13.5517 1.60441L25.4575 13.5102H1.15662C0.885964 13.5102 0.666504 13.7305 0.666504 14.0003C0.666504 14.2714 0.885964 14.4904 1.15662 14.4904H25.4575L13.5525 26.3958C13.3616 26.5863 13.3616 26.8973 13.5525 27.0886C13.6486 27.1847 13.7741 27.2313 13.8995 27.2313C14.025 27.2313 14.1505 27.1834 14.2466 27.0886L26.987 14.3473ZM26.987 14.3473C26.987 14.3478 26.987 14.3478 26.987 14.3473Z" stroke="#1E3301" stroke-width="0.4"/>
</svg>
